G75*
%MOIN*%
%OFA0B0*%
%FSLAX25Y25*%
%IPPOS*%
%LPD*%
%AMOC8*
5,1,8,0,0,1.08239X$1,22.5*
%
%ADD10C,0.00500*%
%ADD11C,0.01000*%
D10*
X0098895Y0035700D02*
X0099345Y0035250D01*
X0100246Y0035250D01*
X0100697Y0035700D01*
X0101841Y0036151D02*
X0101841Y0037952D01*
X0100697Y0037502D02*
X0100246Y0037952D01*
X0099345Y0037952D01*
X0098895Y0037502D01*
X0098895Y0037052D01*
X0099345Y0036601D01*
X0098895Y0036151D01*
X0098895Y0035700D01*
X0099345Y0036601D02*
X0099796Y0036601D01*
X0101841Y0036151D02*
X0102742Y0035250D01*
X0103643Y0036151D01*
X0103643Y0037952D01*
X0104788Y0037502D02*
X0104788Y0037052D01*
X0105238Y0036601D01*
X0104788Y0036151D01*
X0104788Y0035700D01*
X0105238Y0035250D01*
X0106139Y0035250D01*
X0106590Y0035700D01*
X0105689Y0036601D02*
X0105238Y0036601D01*
X0104788Y0037502D02*
X0105238Y0037952D01*
X0106139Y0037952D01*
X0106590Y0037502D01*
X0104195Y0045250D02*
X0102694Y0045250D01*
X0102194Y0045750D01*
X0102194Y0047752D01*
X0102694Y0048253D01*
X0104195Y0048253D01*
X0104195Y0045250D01*
X0100973Y0045750D02*
X0100973Y0046251D01*
X0100472Y0046751D01*
X0099471Y0046751D01*
X0098971Y0046251D01*
X0098971Y0045750D01*
X0099471Y0045250D01*
X0100472Y0045250D01*
X0100973Y0045750D01*
X0100472Y0046751D02*
X0100973Y0047252D01*
X0100973Y0047752D01*
X0100472Y0048253D01*
X0099471Y0048253D01*
X0098971Y0047752D01*
X0098971Y0047252D01*
X0099471Y0046751D01*
X0100973Y0055250D02*
X0100973Y0055750D01*
X0098971Y0057752D01*
X0098971Y0058253D01*
X0100973Y0058253D01*
X0102194Y0057752D02*
X0102694Y0058253D01*
X0104195Y0058253D01*
X0104195Y0055250D01*
X0102694Y0055250D01*
X0102194Y0055750D01*
X0102194Y0057752D01*
X0102694Y0065250D02*
X0102194Y0065750D01*
X0102194Y0067752D01*
X0102694Y0068253D01*
X0104195Y0068253D01*
X0104195Y0065250D01*
X0102694Y0065250D01*
X0100973Y0065750D02*
X0100973Y0066751D01*
X0099471Y0066751D01*
X0098971Y0066251D01*
X0098971Y0065750D01*
X0099471Y0065250D01*
X0100472Y0065250D01*
X0100973Y0065750D01*
X0100973Y0066751D02*
X0099972Y0067752D01*
X0098971Y0068253D01*
X0099471Y0075250D02*
X0100472Y0075250D01*
X0100973Y0075750D01*
X0100973Y0076751D02*
X0099972Y0077252D01*
X0099471Y0077252D01*
X0098971Y0076751D01*
X0098971Y0075750D01*
X0099471Y0075250D01*
X0100973Y0076751D02*
X0100973Y0078253D01*
X0098971Y0078253D01*
X0102194Y0077752D02*
X0102194Y0075750D01*
X0102694Y0075250D01*
X0104195Y0075250D01*
X0104195Y0078253D01*
X0102694Y0078253D01*
X0102194Y0077752D01*
X0102694Y0085250D02*
X0102194Y0085750D01*
X0102194Y0087752D01*
X0102694Y0088253D01*
X0104195Y0088253D01*
X0104195Y0085250D01*
X0102694Y0085250D01*
X0100973Y0085750D02*
X0100973Y0087752D01*
X0100472Y0088253D01*
X0099471Y0088253D01*
X0098971Y0087752D01*
X0100973Y0085750D01*
X0100472Y0085250D01*
X0099471Y0085250D01*
X0098971Y0085750D01*
X0098971Y0087752D01*
X0099471Y0095250D02*
X0100472Y0095250D01*
X0100973Y0095750D01*
X0098971Y0097752D01*
X0098971Y0095750D01*
X0099471Y0095250D01*
X0100973Y0095750D02*
X0100973Y0097752D01*
X0100472Y0098253D01*
X0099471Y0098253D01*
X0098971Y0097752D01*
X0102194Y0097252D02*
X0102194Y0095250D01*
X0102194Y0096751D02*
X0104195Y0096751D01*
X0104195Y0097252D02*
X0103195Y0098253D01*
X0102194Y0097252D01*
X0104195Y0097252D02*
X0104195Y0095250D01*
X0104788Y0105250D02*
X0105689Y0106151D01*
X0105238Y0106151D02*
X0106590Y0106151D01*
X0106590Y0105250D02*
X0106590Y0107952D01*
X0105238Y0107952D01*
X0104788Y0107502D01*
X0104788Y0106601D01*
X0105238Y0106151D01*
X0103643Y0105700D02*
X0103193Y0105250D01*
X0102292Y0105250D01*
X0101841Y0105700D01*
X0101841Y0106151D01*
X0102292Y0106601D01*
X0103193Y0106601D01*
X0103643Y0107052D01*
X0103643Y0107502D01*
X0103193Y0107952D01*
X0102292Y0107952D01*
X0101841Y0107502D01*
X0100697Y0107952D02*
X0098895Y0107952D01*
X0099796Y0107952D02*
X0099796Y0105250D01*
X0170526Y0105250D02*
X0172527Y0108253D01*
X0173748Y0108253D02*
X0175750Y0108253D01*
X0174749Y0108253D02*
X0174749Y0105250D01*
X0172527Y0105250D02*
X0170526Y0108253D01*
X0170526Y0098253D02*
X0172527Y0095250D01*
X0173748Y0095250D02*
X0174749Y0096251D01*
X0174249Y0096251D02*
X0175750Y0096251D01*
X0175750Y0095250D02*
X0175750Y0098253D01*
X0174249Y0098253D01*
X0173748Y0097752D01*
X0173748Y0096751D01*
X0174249Y0096251D01*
X0172527Y0098253D02*
X0170526Y0095250D01*
X0171526Y0088253D02*
X0171526Y0085250D01*
X0170526Y0085250D02*
X0172527Y0085250D01*
X0173748Y0085750D02*
X0173748Y0087752D01*
X0174249Y0088253D01*
X0175750Y0088253D01*
X0175750Y0085250D01*
X0174249Y0085250D01*
X0173748Y0085750D01*
X0172527Y0087252D02*
X0171526Y0088253D01*
X0171026Y0078253D02*
X0172027Y0078253D01*
X0172527Y0077752D01*
X0173748Y0077752D02*
X0174249Y0078253D01*
X0175750Y0078253D01*
X0175750Y0075250D01*
X0174249Y0075250D01*
X0173748Y0075750D01*
X0173748Y0077752D01*
X0171026Y0078253D02*
X0170526Y0077752D01*
X0170526Y0077252D01*
X0172527Y0075250D01*
X0170526Y0075250D01*
X0171026Y0068253D02*
X0170526Y0067752D01*
X0170526Y0067252D01*
X0171026Y0066751D01*
X0170526Y0066251D01*
X0170526Y0065750D01*
X0171026Y0065250D01*
X0172027Y0065250D01*
X0172527Y0065750D01*
X0173748Y0065750D02*
X0173748Y0067752D01*
X0174249Y0068253D01*
X0175750Y0068253D01*
X0175750Y0065250D01*
X0174249Y0065250D01*
X0173748Y0065750D01*
X0172527Y0067752D02*
X0172027Y0068253D01*
X0171026Y0068253D01*
X0171026Y0066751D02*
X0171526Y0066751D01*
X0171026Y0058253D02*
X0172527Y0056751D01*
X0170526Y0056751D01*
X0171026Y0055250D02*
X0171026Y0058253D01*
X0173748Y0057752D02*
X0173748Y0055750D01*
X0174249Y0055250D01*
X0175750Y0055250D01*
X0175750Y0058253D01*
X0174249Y0058253D01*
X0173748Y0057752D01*
X0174399Y0047952D02*
X0175300Y0047952D01*
X0175750Y0047502D01*
X0175750Y0045700D01*
X0175300Y0045250D01*
X0174399Y0045250D01*
X0173948Y0045700D01*
X0173948Y0046601D01*
X0174849Y0046601D01*
X0173948Y0047502D02*
X0174399Y0047952D01*
X0172803Y0047952D02*
X0171002Y0045250D01*
X0171002Y0047952D01*
X0169857Y0047952D02*
X0168506Y0047952D01*
X0168055Y0047502D01*
X0168055Y0045700D01*
X0168506Y0045250D01*
X0169857Y0045250D01*
X0169857Y0047952D01*
X0172803Y0047952D02*
X0172803Y0045250D01*
X0172803Y0037952D02*
X0172803Y0036151D01*
X0171903Y0035250D01*
X0171002Y0036151D01*
X0171002Y0037952D01*
X0173948Y0037952D02*
X0175750Y0037952D01*
X0175750Y0036601D01*
X0174849Y0037052D01*
X0174399Y0037052D01*
X0173948Y0036601D01*
X0173948Y0035700D01*
X0174399Y0035250D01*
X0175300Y0035250D01*
X0175750Y0035700D01*
D11*
X0087000Y0031500D02*
X0087000Y0111500D01*
X0097000Y0111500D01*
X0097000Y0031500D01*
X0087000Y0031500D01*
X0177000Y0031500D02*
X0177000Y0111500D01*
X0187000Y0111500D01*
X0187000Y0031500D01*
X0177000Y0031500D01*
M02*
