G75*
%MOIN*%
%OFA0B0*%
%FSLAX25Y25*%
%IPPOS*%
%LPD*%
%AMOC8*
5,1,8,0,0,1.08239X$1,22.5*
%
%ADD10R,0.06400X0.06400*%
%ADD11C,0.06400*%
%ADD12OC8,0.05600*%
%ADD13C,0.06400*%
%ADD14R,0.08000X0.08000*%
%ADD15C,0.08000*%
%ADD16C,0.07600*%
%ADD17R,0.07600X0.07600*%
%ADD18C,0.01000*%
%ADD19C,0.10400*%
D10*
X0092000Y0106500D03*
X0182000Y0106500D03*
D11*
X0182000Y0096500D03*
X0182000Y0086500D03*
X0182000Y0076500D03*
X0182000Y0066500D03*
X0182000Y0056500D03*
X0182000Y0046500D03*
X0182000Y0036500D03*
X0092000Y0036500D03*
X0092000Y0046500D03*
X0092000Y0056500D03*
X0092000Y0066500D03*
X0092000Y0076500D03*
X0092000Y0086500D03*
X0092000Y0096500D03*
D12*
X0118000Y0092500D03*
X0166000Y0092500D03*
X0166000Y0052500D03*
X0118000Y0052500D03*
D13*
X0118000Y0016700D02*
X0118000Y0010300D01*
X0108000Y0010300D02*
X0108000Y0016700D01*
X0128000Y0016700D02*
X0128000Y0010300D01*
X0156000Y0010300D02*
X0156000Y0016700D01*
X0166000Y0016700D02*
X0166000Y0010300D01*
X0176000Y0010300D02*
X0176000Y0016700D01*
D14*
X0131000Y0114500D03*
D15*
X0150685Y0114500D03*
D16*
X0149843Y0041500D03*
D17*
X0130157Y0041500D03*
D18*
X0088350Y0033786D02*
X0088350Y0032222D01*
X0094909Y0027850D01*
X0095059Y0027850D01*
X0095360Y0027549D01*
X0095714Y0027313D01*
X0095744Y0027166D01*
X0095850Y0027059D01*
X0095850Y0026634D01*
X0095933Y0026216D01*
X0095850Y0026091D01*
X0095850Y0006500D01*
X0095920Y0005788D01*
X0096465Y0004472D01*
X0097472Y0003465D01*
X0098788Y0002920D01*
X0099500Y0002850D01*
X0182000Y0002850D01*
X0182712Y0002920D01*
X0184028Y0003465D01*
X0185035Y0004472D01*
X0185580Y0005788D01*
X0185650Y0006500D01*
X0185650Y0033786D01*
X0184549Y0032685D01*
X0182895Y0032000D01*
X0181105Y0032000D01*
X0179451Y0032685D01*
X0178185Y0033951D01*
X0177875Y0034700D01*
X0167746Y0034700D01*
X0156948Y0023902D01*
X0159682Y0021168D01*
X0161510Y0019339D01*
X0161866Y0018480D01*
X0162185Y0019249D01*
X0163451Y0020515D01*
X0165105Y0021200D01*
X0166895Y0021200D01*
X0168549Y0020515D01*
X0169815Y0019249D01*
X0170500Y0017595D01*
X0170500Y0009405D01*
X0169815Y0007751D01*
X0168549Y0006485D01*
X0166895Y0005800D01*
X0165105Y0005800D01*
X0163451Y0006485D01*
X0162185Y0007751D01*
X0161500Y0009405D01*
X0161500Y0009808D01*
X0160078Y0008385D01*
X0159815Y0007751D01*
X0158549Y0006485D01*
X0156895Y0005800D01*
X0155105Y0005800D01*
X0153451Y0006485D01*
X0152185Y0007751D01*
X0151922Y0008385D01*
X0150490Y0009818D01*
X0149500Y0012207D01*
X0149500Y0012965D01*
X0145568Y0016897D01*
X0127465Y0035000D01*
X0123030Y0035000D01*
X0115939Y0020717D01*
X0117105Y0021200D01*
X0118895Y0021200D01*
X0120549Y0020515D01*
X0121815Y0019249D01*
X0122500Y0017595D01*
X0122500Y0009405D01*
X0121815Y0007751D01*
X0120549Y0006485D01*
X0118895Y0005800D01*
X0117105Y0005800D01*
X0115451Y0006485D01*
X0114185Y0007751D01*
X0113500Y0009405D01*
X0113500Y0009808D01*
X0112078Y0008385D01*
X0111815Y0007751D01*
X0110549Y0006485D01*
X0108895Y0005800D01*
X0107105Y0005800D01*
X0105451Y0006485D01*
X0104185Y0007751D01*
X0103922Y0008385D01*
X0102490Y0009818D01*
X0101500Y0012207D01*
X0101500Y0018278D01*
X0101427Y0018495D01*
X0101500Y0019564D01*
X0101500Y0020635D01*
X0101587Y0020847D01*
X0101603Y0021075D01*
X0102080Y0022035D01*
X0102490Y0023024D01*
X0102651Y0023186D01*
X0113080Y0044192D01*
X0113490Y0045182D01*
X0113651Y0045344D01*
X0113753Y0045548D01*
X0114560Y0046253D01*
X0115318Y0047010D01*
X0115529Y0047098D01*
X0115702Y0047248D01*
X0116717Y0047590D01*
X0117707Y0048000D01*
X0117936Y0048000D01*
X0118152Y0048073D01*
X0119221Y0048000D01*
X0124500Y0048000D01*
X0124500Y0115793D01*
X0125490Y0118182D01*
X0125700Y0118392D01*
X0125700Y0119038D01*
X0126462Y0119800D01*
X0127108Y0119800D01*
X0127318Y0120010D01*
X0129707Y0121000D01*
X0132293Y0121000D01*
X0134682Y0120010D01*
X0134892Y0119800D01*
X0135538Y0119800D01*
X0136300Y0119038D01*
X0136300Y0118392D01*
X0136510Y0118182D01*
X0137500Y0115793D01*
X0137500Y0043350D01*
X0154402Y0026448D01*
X0166254Y0038300D01*
X0177875Y0038300D01*
X0178185Y0039049D01*
X0179451Y0040315D01*
X0181105Y0041000D01*
X0182895Y0041000D01*
X0184549Y0040315D01*
X0185650Y0039214D01*
X0185650Y0043528D01*
X0185585Y0043438D01*
X0185062Y0042915D01*
X0184463Y0042480D01*
X0183804Y0042144D01*
X0183101Y0041916D01*
X0182500Y0041821D01*
X0182500Y0046000D01*
X0181500Y0046000D01*
X0181500Y0041821D01*
X0180899Y0041916D01*
X0180196Y0042144D01*
X0179537Y0042480D01*
X0178938Y0042915D01*
X0178415Y0043438D01*
X0177980Y0044037D01*
X0177644Y0044696D01*
X0177416Y0045399D01*
X0177321Y0046000D01*
X0181500Y0046000D01*
X0181500Y0047000D01*
X0181500Y0051179D01*
X0180899Y0051084D01*
X0180196Y0050856D01*
X0179537Y0050520D01*
X0178938Y0050085D01*
X0178415Y0049562D01*
X0177980Y0048963D01*
X0177644Y0048304D01*
X0177416Y0047601D01*
X0177321Y0047000D01*
X0181500Y0047000D01*
X0182500Y0047000D01*
X0182500Y0051179D01*
X0183101Y0051084D01*
X0183804Y0050856D01*
X0184463Y0050520D01*
X0185062Y0050085D01*
X0185585Y0049562D01*
X0185650Y0049472D01*
X0185650Y0053786D01*
X0184549Y0052685D01*
X0182895Y0052000D01*
X0181105Y0052000D01*
X0179451Y0052685D01*
X0178185Y0053951D01*
X0177500Y0055605D01*
X0177500Y0057395D01*
X0178185Y0059049D01*
X0179451Y0060315D01*
X0181105Y0061000D01*
X0182895Y0061000D01*
X0184549Y0060315D01*
X0185650Y0059214D01*
X0185650Y0063786D01*
X0184549Y0062685D01*
X0182895Y0062000D01*
X0181105Y0062000D01*
X0179451Y0062685D01*
X0178185Y0063951D01*
X0177500Y0065605D01*
X0177500Y0067395D01*
X0178185Y0069049D01*
X0179451Y0070315D01*
X0181105Y0071000D01*
X0182895Y0071000D01*
X0184549Y0070315D01*
X0185650Y0069214D01*
X0185650Y0073786D01*
X0184549Y0072685D01*
X0182895Y0072000D01*
X0181105Y0072000D01*
X0179451Y0072685D01*
X0178185Y0073951D01*
X0177500Y0075605D01*
X0177500Y0077395D01*
X0178185Y0079049D01*
X0179451Y0080315D01*
X0181105Y0081000D01*
X0182895Y0081000D01*
X0184549Y0080315D01*
X0185650Y0079214D01*
X0185650Y0083786D01*
X0184549Y0082685D01*
X0182895Y0082000D01*
X0181105Y0082000D01*
X0179451Y0082685D01*
X0178185Y0083951D01*
X0177500Y0085605D01*
X0177500Y0087395D01*
X0178185Y0089049D01*
X0179451Y0090315D01*
X0181105Y0091000D01*
X0182895Y0091000D01*
X0184549Y0090315D01*
X0185650Y0089214D01*
X0185650Y0093786D01*
X0184549Y0092685D01*
X0182895Y0092000D01*
X0181105Y0092000D01*
X0179451Y0092685D01*
X0178185Y0093951D01*
X0177500Y0095605D01*
X0177500Y0097395D01*
X0178185Y0099049D01*
X0179451Y0100315D01*
X0181105Y0101000D01*
X0182895Y0101000D01*
X0184549Y0100315D01*
X0185650Y0099214D01*
X0185650Y0102000D01*
X0178262Y0102000D01*
X0177500Y0102762D01*
X0177500Y0110238D01*
X0178262Y0111000D01*
X0185650Y0111000D01*
X0185650Y0126500D01*
X0185580Y0127212D01*
X0185035Y0128528D01*
X0184028Y0129535D01*
X0182712Y0130080D01*
X0182000Y0130150D01*
X0092000Y0130150D01*
X0091288Y0130080D01*
X0089972Y0129535D01*
X0088965Y0128528D01*
X0088420Y0127212D01*
X0088350Y0126500D01*
X0088350Y0111000D01*
X0095738Y0111000D01*
X0096500Y0110238D01*
X0096500Y0102762D01*
X0095738Y0102000D01*
X0088350Y0102000D01*
X0088350Y0099214D01*
X0089451Y0100315D01*
X0091105Y0101000D01*
X0092895Y0101000D01*
X0094549Y0100315D01*
X0095815Y0099049D01*
X0096500Y0097395D01*
X0096500Y0095605D01*
X0095815Y0093951D01*
X0094549Y0092685D01*
X0092895Y0092000D01*
X0091105Y0092000D01*
X0089451Y0092685D01*
X0088350Y0093786D01*
X0088350Y0089214D01*
X0089451Y0090315D01*
X0091105Y0091000D01*
X0092895Y0091000D01*
X0094549Y0090315D01*
X0095815Y0089049D01*
X0096500Y0087395D01*
X0096500Y0085605D01*
X0095815Y0083951D01*
X0094549Y0082685D01*
X0092895Y0082000D01*
X0091105Y0082000D01*
X0089451Y0082685D01*
X0088350Y0083786D01*
X0088350Y0079214D01*
X0089451Y0080315D01*
X0091105Y0081000D01*
X0092895Y0081000D01*
X0094549Y0080315D01*
X0095815Y0079049D01*
X0096500Y0077395D01*
X0096500Y0075605D01*
X0095815Y0073951D01*
X0094549Y0072685D01*
X0092895Y0072000D01*
X0091105Y0072000D01*
X0089451Y0072685D01*
X0088350Y0073786D01*
X0088350Y0069214D01*
X0089451Y0070315D01*
X0091105Y0071000D01*
X0092895Y0071000D01*
X0094549Y0070315D01*
X0095815Y0069049D01*
X0096500Y0067395D01*
X0096500Y0065605D01*
X0095815Y0063951D01*
X0094549Y0062685D01*
X0092895Y0062000D01*
X0091105Y0062000D01*
X0089451Y0062685D01*
X0088350Y0063786D01*
X0088350Y0059214D01*
X0089451Y0060315D01*
X0091105Y0061000D01*
X0092895Y0061000D01*
X0094549Y0060315D01*
X0095815Y0059049D01*
X0096500Y0057395D01*
X0096500Y0055605D01*
X0095815Y0053951D01*
X0094549Y0052685D01*
X0092895Y0052000D01*
X0091105Y0052000D01*
X0089451Y0052685D01*
X0088350Y0053786D01*
X0088350Y0049214D01*
X0089451Y0050315D01*
X0091105Y0051000D01*
X0092895Y0051000D01*
X0094549Y0050315D01*
X0095815Y0049049D01*
X0096500Y0047395D01*
X0096500Y0045605D01*
X0095815Y0043951D01*
X0094549Y0042685D01*
X0092895Y0042000D01*
X0091105Y0042000D01*
X0089451Y0042685D01*
X0088350Y0043786D01*
X0088350Y0039214D01*
X0089451Y0040315D01*
X0091105Y0041000D01*
X0092895Y0041000D01*
X0094549Y0040315D01*
X0095815Y0039049D01*
X0096500Y0037395D01*
X0096500Y0035605D01*
X0095815Y0033951D01*
X0094549Y0032685D01*
X0092895Y0032000D01*
X0091105Y0032000D01*
X0089451Y0032685D01*
X0088350Y0033786D01*
X0088350Y0033452D02*
X0088684Y0033452D01*
X0088350Y0032454D02*
X0090009Y0032454D01*
X0089501Y0031455D02*
X0106756Y0031455D01*
X0106261Y0030457D02*
X0090998Y0030457D01*
X0092496Y0029458D02*
X0105765Y0029458D01*
X0105269Y0028460D02*
X0093994Y0028460D01*
X0095492Y0027461D02*
X0104774Y0027461D01*
X0104278Y0026463D02*
X0095884Y0026463D01*
X0095850Y0025464D02*
X0103782Y0025464D01*
X0103287Y0024466D02*
X0095850Y0024466D01*
X0095850Y0023467D02*
X0102791Y0023467D01*
X0102259Y0022469D02*
X0095850Y0022469D01*
X0095850Y0021470D02*
X0101799Y0021470D01*
X0101500Y0020472D02*
X0095850Y0020472D01*
X0095850Y0019473D02*
X0101494Y0019473D01*
X0101434Y0018475D02*
X0095850Y0018475D01*
X0095850Y0017476D02*
X0101500Y0017476D01*
X0101500Y0016478D02*
X0095850Y0016478D01*
X0095850Y0015479D02*
X0101500Y0015479D01*
X0101500Y0014481D02*
X0095850Y0014481D01*
X0095850Y0013482D02*
X0101500Y0013482D01*
X0101500Y0012484D02*
X0095850Y0012484D01*
X0095850Y0011485D02*
X0101799Y0011485D01*
X0102213Y0010487D02*
X0095850Y0010487D01*
X0095850Y0009488D02*
X0102820Y0009488D01*
X0103818Y0008490D02*
X0095850Y0008490D01*
X0095850Y0007491D02*
X0104445Y0007491D01*
X0105443Y0006493D02*
X0095851Y0006493D01*
X0096042Y0005494D02*
X0185458Y0005494D01*
X0185649Y0006493D02*
X0178756Y0006493D01*
X0178463Y0006280D02*
X0179062Y0006715D01*
X0179585Y0007238D01*
X0180020Y0007837D01*
X0180356Y0008496D01*
X0180584Y0009199D01*
X0180700Y0009930D01*
X0180700Y0013000D01*
X0176500Y0013000D01*
X0176500Y0014000D01*
X0180700Y0014000D01*
X0180700Y0017070D01*
X0180584Y0017801D01*
X0180356Y0018504D01*
X0180020Y0019163D01*
X0179585Y0019762D01*
X0179062Y0020285D01*
X0178463Y0020720D01*
X0177804Y0021056D01*
X0177101Y0021284D01*
X0176500Y0021379D01*
X0176500Y0014000D01*
X0175500Y0014000D01*
X0175500Y0021379D01*
X0174899Y0021284D01*
X0174196Y0021056D01*
X0173537Y0020720D01*
X0172938Y0020285D01*
X0172415Y0019762D01*
X0171980Y0019163D01*
X0171644Y0018504D01*
X0171416Y0017801D01*
X0171300Y0017070D01*
X0171300Y0014000D01*
X0175500Y0014000D01*
X0175500Y0013000D01*
X0176500Y0013000D01*
X0176500Y0005621D01*
X0177101Y0005716D01*
X0177804Y0005944D01*
X0178463Y0006280D01*
X0179769Y0007491D02*
X0185650Y0007491D01*
X0185650Y0008490D02*
X0180352Y0008490D01*
X0180630Y0009488D02*
X0185650Y0009488D01*
X0185650Y0010487D02*
X0180700Y0010487D01*
X0180700Y0011485D02*
X0185650Y0011485D01*
X0185650Y0012484D02*
X0180700Y0012484D01*
X0180700Y0014481D02*
X0185650Y0014481D01*
X0185650Y0015479D02*
X0180700Y0015479D01*
X0180700Y0016478D02*
X0185650Y0016478D01*
X0185650Y0017476D02*
X0180636Y0017476D01*
X0180365Y0018475D02*
X0185650Y0018475D01*
X0185650Y0019473D02*
X0179795Y0019473D01*
X0178805Y0020472D02*
X0185650Y0020472D01*
X0185650Y0021470D02*
X0159380Y0021470D01*
X0160378Y0020472D02*
X0163408Y0020472D01*
X0162409Y0019473D02*
X0161377Y0019473D01*
X0158381Y0022469D02*
X0185650Y0022469D01*
X0185650Y0023467D02*
X0157383Y0023467D01*
X0157511Y0024466D02*
X0185650Y0024466D01*
X0185650Y0025464D02*
X0158510Y0025464D01*
X0159508Y0026463D02*
X0185650Y0026463D01*
X0185650Y0027461D02*
X0160507Y0027461D01*
X0161505Y0028460D02*
X0185650Y0028460D01*
X0185650Y0029458D02*
X0162504Y0029458D01*
X0163502Y0030457D02*
X0185650Y0030457D01*
X0185650Y0031455D02*
X0164501Y0031455D01*
X0165499Y0032454D02*
X0180009Y0032454D01*
X0178684Y0033452D02*
X0166498Y0033452D01*
X0167496Y0034451D02*
X0177978Y0034451D01*
X0182000Y0036500D02*
X0167000Y0036500D01*
X0151079Y0020579D01*
X0145987Y0016478D02*
X0132700Y0016478D01*
X0132700Y0017070D02*
X0132584Y0017801D01*
X0132356Y0018504D01*
X0132020Y0019163D01*
X0131585Y0019762D01*
X0131062Y0020285D01*
X0130463Y0020720D01*
X0129804Y0021056D01*
X0129101Y0021284D01*
X0128500Y0021379D01*
X0128500Y0014000D01*
X0132700Y0014000D01*
X0132700Y0017070D01*
X0132636Y0017476D02*
X0144989Y0017476D01*
X0143990Y0018475D02*
X0132365Y0018475D01*
X0131795Y0019473D02*
X0142992Y0019473D01*
X0141993Y0020472D02*
X0130805Y0020472D01*
X0128500Y0020472D02*
X0127500Y0020472D01*
X0127500Y0021379D02*
X0126899Y0021284D01*
X0126196Y0021056D01*
X0125537Y0020720D01*
X0124938Y0020285D01*
X0124415Y0019762D01*
X0123980Y0019163D01*
X0123644Y0018504D01*
X0123416Y0017801D01*
X0123300Y0017070D01*
X0123300Y0014000D01*
X0127500Y0014000D01*
X0127500Y0021379D01*
X0125195Y0020472D02*
X0120592Y0020472D01*
X0121591Y0019473D02*
X0124205Y0019473D01*
X0123635Y0018475D02*
X0122136Y0018475D01*
X0122500Y0017476D02*
X0123364Y0017476D01*
X0123300Y0016478D02*
X0122500Y0016478D01*
X0122500Y0015479D02*
X0123300Y0015479D01*
X0123300Y0014481D02*
X0122500Y0014481D01*
X0122500Y0013482D02*
X0127500Y0013482D01*
X0127500Y0013000D02*
X0127500Y0014000D01*
X0128500Y0014000D01*
X0128500Y0013000D01*
X0132700Y0013000D01*
X0132700Y0009930D01*
X0132584Y0009199D01*
X0132356Y0008496D01*
X0132020Y0007837D01*
X0131585Y0007238D01*
X0131062Y0006715D01*
X0130463Y0006280D01*
X0129804Y0005944D01*
X0129101Y0005716D01*
X0128500Y0005621D01*
X0128500Y0013000D01*
X0127500Y0013000D01*
X0127500Y0005621D01*
X0126899Y0005716D01*
X0126196Y0005944D01*
X0125537Y0006280D01*
X0124938Y0006715D01*
X0124415Y0007238D01*
X0123980Y0007837D01*
X0123644Y0008496D01*
X0123416Y0009199D01*
X0123300Y0009930D01*
X0123300Y0013000D01*
X0127500Y0013000D01*
X0127500Y0012484D02*
X0128500Y0012484D01*
X0128500Y0013482D02*
X0148983Y0013482D01*
X0149500Y0012484D02*
X0132700Y0012484D01*
X0132700Y0011485D02*
X0149799Y0011485D01*
X0150213Y0010487D02*
X0132700Y0010487D01*
X0132630Y0009488D02*
X0150820Y0009488D01*
X0151818Y0008490D02*
X0132352Y0008490D01*
X0131769Y0007491D02*
X0152445Y0007491D01*
X0153443Y0006493D02*
X0130756Y0006493D01*
X0128500Y0006493D02*
X0127500Y0006493D01*
X0127500Y0007491D02*
X0128500Y0007491D01*
X0128500Y0008490D02*
X0127500Y0008490D01*
X0127500Y0009488D02*
X0128500Y0009488D01*
X0128500Y0010487D02*
X0127500Y0010487D01*
X0127500Y0011485D02*
X0128500Y0011485D01*
X0128500Y0014481D02*
X0127500Y0014481D01*
X0127500Y0015479D02*
X0128500Y0015479D01*
X0128500Y0016478D02*
X0127500Y0016478D01*
X0127500Y0017476D02*
X0128500Y0017476D01*
X0128500Y0018475D02*
X0127500Y0018475D01*
X0127500Y0019473D02*
X0128500Y0019473D01*
X0132700Y0015479D02*
X0146986Y0015479D01*
X0147984Y0014481D02*
X0132700Y0014481D01*
X0123300Y0012484D02*
X0122500Y0012484D01*
X0122500Y0011485D02*
X0123300Y0011485D01*
X0123300Y0010487D02*
X0122500Y0010487D01*
X0122500Y0009488D02*
X0123370Y0009488D01*
X0123648Y0008490D02*
X0122121Y0008490D01*
X0121555Y0007491D02*
X0124231Y0007491D01*
X0125244Y0006493D02*
X0120557Y0006493D01*
X0115443Y0006493D02*
X0110557Y0006493D01*
X0111555Y0007491D02*
X0114445Y0007491D01*
X0113879Y0008490D02*
X0112182Y0008490D01*
X0113180Y0009488D02*
X0113500Y0009488D01*
X0116313Y0021470D02*
X0140995Y0021470D01*
X0139996Y0022469D02*
X0116809Y0022469D01*
X0117305Y0023467D02*
X0138998Y0023467D01*
X0137999Y0024466D02*
X0117800Y0024466D01*
X0118296Y0025464D02*
X0137001Y0025464D01*
X0136002Y0026463D02*
X0118792Y0026463D01*
X0119287Y0027461D02*
X0135004Y0027461D01*
X0134005Y0028460D02*
X0119783Y0028460D01*
X0120279Y0029458D02*
X0133007Y0029458D01*
X0132008Y0030457D02*
X0120775Y0030457D01*
X0121270Y0031455D02*
X0131010Y0031455D01*
X0130011Y0032454D02*
X0121766Y0032454D01*
X0122262Y0033452D02*
X0129013Y0033452D01*
X0128014Y0034451D02*
X0122757Y0034451D01*
X0111218Y0040442D02*
X0094242Y0040442D01*
X0095421Y0039443D02*
X0110722Y0039443D01*
X0110226Y0038445D02*
X0096065Y0038445D01*
X0096479Y0037446D02*
X0109731Y0037446D01*
X0109235Y0036448D02*
X0096500Y0036448D01*
X0096436Y0035449D02*
X0108739Y0035449D01*
X0108244Y0034451D02*
X0096022Y0034451D01*
X0095316Y0033452D02*
X0107748Y0033452D01*
X0107252Y0032454D02*
X0093991Y0032454D01*
X0088579Y0039443D02*
X0088350Y0039443D01*
X0088350Y0040442D02*
X0089758Y0040442D01*
X0088350Y0041440D02*
X0111714Y0041440D01*
X0112209Y0042439D02*
X0093955Y0042439D01*
X0095301Y0043437D02*
X0112705Y0043437D01*
X0113181Y0044436D02*
X0096016Y0044436D01*
X0096429Y0045434D02*
X0113696Y0045434D01*
X0114741Y0046433D02*
X0096500Y0046433D01*
X0096485Y0047432D02*
X0116246Y0047432D01*
X0116302Y0048400D02*
X0119698Y0048400D01*
X0122100Y0050802D01*
X0122100Y0054198D01*
X0119698Y0056600D01*
X0116302Y0056600D01*
X0113900Y0054198D01*
X0113900Y0050802D01*
X0116302Y0048400D01*
X0116272Y0048430D02*
X0096071Y0048430D01*
X0095435Y0049429D02*
X0115273Y0049429D01*
X0114275Y0050427D02*
X0094278Y0050427D01*
X0093919Y0052424D02*
X0113900Y0052424D01*
X0113900Y0051426D02*
X0088350Y0051426D01*
X0088350Y0052424D02*
X0090081Y0052424D01*
X0088713Y0053423D02*
X0088350Y0053423D01*
X0088350Y0050427D02*
X0089722Y0050427D01*
X0088565Y0049429D02*
X0088350Y0049429D01*
X0095287Y0053423D02*
X0113900Y0053423D01*
X0114123Y0054421D02*
X0096010Y0054421D01*
X0096423Y0055420D02*
X0115121Y0055420D01*
X0116120Y0056418D02*
X0096500Y0056418D01*
X0096491Y0057417D02*
X0124500Y0057417D01*
X0124500Y0058415D02*
X0096077Y0058415D01*
X0095450Y0059414D02*
X0124500Y0059414D01*
X0124500Y0060412D02*
X0094314Y0060412D01*
X0093883Y0062409D02*
X0124500Y0062409D01*
X0124500Y0061411D02*
X0088350Y0061411D01*
X0088350Y0062409D02*
X0090117Y0062409D01*
X0088728Y0063408D02*
X0088350Y0063408D01*
X0088350Y0060412D02*
X0089686Y0060412D01*
X0088550Y0059414D02*
X0088350Y0059414D01*
X0095272Y0063408D02*
X0124500Y0063408D01*
X0124500Y0064406D02*
X0096003Y0064406D01*
X0096417Y0065405D02*
X0124500Y0065405D01*
X0124500Y0066403D02*
X0096500Y0066403D01*
X0096497Y0067402D02*
X0124500Y0067402D01*
X0124500Y0068400D02*
X0096084Y0068400D01*
X0095465Y0069399D02*
X0124500Y0069399D01*
X0124500Y0070397D02*
X0094350Y0070397D01*
X0093847Y0072394D02*
X0124500Y0072394D01*
X0124500Y0071396D02*
X0088350Y0071396D01*
X0088350Y0072394D02*
X0090153Y0072394D01*
X0088743Y0073393D02*
X0088350Y0073393D01*
X0088350Y0070397D02*
X0089650Y0070397D01*
X0088535Y0069399D02*
X0088350Y0069399D01*
X0095257Y0073393D02*
X0124500Y0073393D01*
X0124500Y0074391D02*
X0095997Y0074391D01*
X0096411Y0075390D02*
X0124500Y0075390D01*
X0124500Y0076388D02*
X0096500Y0076388D01*
X0096500Y0077387D02*
X0124500Y0077387D01*
X0124500Y0078385D02*
X0096090Y0078385D01*
X0095480Y0079384D02*
X0124500Y0079384D01*
X0124500Y0080382D02*
X0094386Y0080382D01*
X0093811Y0082379D02*
X0124500Y0082379D01*
X0124500Y0081381D02*
X0088350Y0081381D01*
X0088350Y0082379D02*
X0090189Y0082379D01*
X0088758Y0083378D02*
X0088350Y0083378D01*
X0088350Y0080382D02*
X0089614Y0080382D01*
X0088520Y0079384D02*
X0088350Y0079384D01*
X0095242Y0083378D02*
X0124500Y0083378D01*
X0124500Y0084376D02*
X0095991Y0084376D01*
X0096405Y0085375D02*
X0124500Y0085375D01*
X0124500Y0086373D02*
X0096500Y0086373D01*
X0096500Y0087372D02*
X0124500Y0087372D01*
X0124500Y0088370D02*
X0096096Y0088370D01*
X0095495Y0089369D02*
X0115333Y0089369D01*
X0116302Y0088400D02*
X0113900Y0090802D01*
X0113900Y0094198D01*
X0116302Y0096600D01*
X0119698Y0096600D01*
X0122100Y0094198D01*
X0122100Y0090802D01*
X0119698Y0088400D01*
X0116302Y0088400D01*
X0114334Y0090368D02*
X0094422Y0090368D01*
X0093775Y0092365D02*
X0113900Y0092365D01*
X0113900Y0093363D02*
X0095227Y0093363D01*
X0095985Y0094362D02*
X0114063Y0094362D01*
X0115062Y0095360D02*
X0096399Y0095360D01*
X0096500Y0096359D02*
X0116060Y0096359D01*
X0119940Y0096359D02*
X0124500Y0096359D01*
X0124500Y0097357D02*
X0096500Y0097357D01*
X0096102Y0098356D02*
X0124500Y0098356D01*
X0124500Y0099354D02*
X0095510Y0099354D01*
X0094458Y0100353D02*
X0124500Y0100353D01*
X0124500Y0101351D02*
X0088350Y0101351D01*
X0088350Y0100353D02*
X0089542Y0100353D01*
X0088490Y0099354D02*
X0088350Y0099354D01*
X0088350Y0093363D02*
X0088773Y0093363D01*
X0088350Y0092365D02*
X0090225Y0092365D01*
X0088350Y0091366D02*
X0113900Y0091366D01*
X0120667Y0089369D02*
X0124500Y0089369D01*
X0124500Y0090368D02*
X0121666Y0090368D01*
X0122100Y0091366D02*
X0124500Y0091366D01*
X0124500Y0092365D02*
X0122100Y0092365D01*
X0122100Y0093363D02*
X0124500Y0093363D01*
X0124500Y0094362D02*
X0121937Y0094362D01*
X0120938Y0095360D02*
X0124500Y0095360D01*
X0124500Y0102350D02*
X0096088Y0102350D01*
X0096500Y0103348D02*
X0124500Y0103348D01*
X0124500Y0104347D02*
X0096500Y0104347D01*
X0096500Y0105345D02*
X0124500Y0105345D01*
X0124500Y0106344D02*
X0096500Y0106344D01*
X0096500Y0107342D02*
X0124500Y0107342D01*
X0124500Y0108341D02*
X0096500Y0108341D01*
X0096500Y0109339D02*
X0124500Y0109339D01*
X0124500Y0110338D02*
X0096401Y0110338D01*
X0088350Y0111336D02*
X0124500Y0111336D01*
X0124500Y0112335D02*
X0088350Y0112335D01*
X0088350Y0113333D02*
X0124500Y0113333D01*
X0124500Y0114332D02*
X0088350Y0114332D01*
X0088350Y0115330D02*
X0124500Y0115330D01*
X0124722Y0116329D02*
X0088350Y0116329D01*
X0088350Y0117327D02*
X0125136Y0117327D01*
X0125633Y0118326D02*
X0088350Y0118326D01*
X0088350Y0119324D02*
X0125986Y0119324D01*
X0128072Y0120323D02*
X0088350Y0120323D01*
X0088350Y0121321D02*
X0185650Y0121321D01*
X0185650Y0120323D02*
X0133928Y0120323D01*
X0136014Y0119324D02*
X0148039Y0119324D01*
X0147802Y0119204D02*
X0147102Y0118695D01*
X0146490Y0118083D01*
X0145981Y0117383D01*
X0145588Y0116611D01*
X0145320Y0115788D01*
X0145196Y0115000D01*
X0150185Y0115000D01*
X0150185Y0114000D01*
X0145196Y0114000D01*
X0145320Y0113212D01*
X0145588Y0112389D01*
X0145981Y0111617D01*
X0146490Y0110917D01*
X0147102Y0110305D01*
X0147802Y0109796D01*
X0148574Y0109403D01*
X0149397Y0109135D01*
X0150185Y0109011D01*
X0150185Y0114000D01*
X0151185Y0114000D01*
X0151185Y0109011D01*
X0151973Y0109135D01*
X0152796Y0109403D01*
X0153568Y0109796D01*
X0154268Y0110305D01*
X0154880Y0110917D01*
X0155389Y0111617D01*
X0155782Y0112389D01*
X0156050Y0113212D01*
X0156174Y0114000D01*
X0151185Y0114000D01*
X0151185Y0115000D01*
X0150185Y0115000D01*
X0150185Y0119989D01*
X0149397Y0119865D01*
X0148574Y0119597D01*
X0147802Y0119204D01*
X0146733Y0118326D02*
X0136367Y0118326D01*
X0136864Y0117327D02*
X0145953Y0117327D01*
X0145496Y0116329D02*
X0137278Y0116329D01*
X0137500Y0115330D02*
X0145248Y0115330D01*
X0145301Y0113333D02*
X0137500Y0113333D01*
X0137500Y0112335D02*
X0145615Y0112335D01*
X0146185Y0111336D02*
X0137500Y0111336D01*
X0137500Y0110338D02*
X0147069Y0110338D01*
X0148770Y0109339D02*
X0137500Y0109339D01*
X0137500Y0108341D02*
X0177500Y0108341D01*
X0177500Y0109339D02*
X0152600Y0109339D01*
X0151185Y0109339D02*
X0150185Y0109339D01*
X0150185Y0110338D02*
X0151185Y0110338D01*
X0151185Y0111336D02*
X0150185Y0111336D01*
X0150185Y0112335D02*
X0151185Y0112335D01*
X0151185Y0113333D02*
X0150185Y0113333D01*
X0150185Y0114332D02*
X0137500Y0114332D01*
X0137500Y0107342D02*
X0177500Y0107342D01*
X0177500Y0106344D02*
X0137500Y0106344D01*
X0137500Y0105345D02*
X0177500Y0105345D01*
X0177500Y0104347D02*
X0137500Y0104347D01*
X0137500Y0103348D02*
X0177500Y0103348D01*
X0177912Y0102350D02*
X0137500Y0102350D01*
X0137500Y0101351D02*
X0185650Y0101351D01*
X0185650Y0100353D02*
X0184458Y0100353D01*
X0185510Y0099354D02*
X0185650Y0099354D01*
X0179542Y0100353D02*
X0137500Y0100353D01*
X0137500Y0099354D02*
X0178490Y0099354D01*
X0177898Y0098356D02*
X0137500Y0098356D01*
X0137500Y0097357D02*
X0177500Y0097357D01*
X0177500Y0096359D02*
X0167940Y0096359D01*
X0167698Y0096600D02*
X0164302Y0096600D01*
X0161900Y0094198D01*
X0161900Y0090802D01*
X0164302Y0088400D01*
X0167698Y0088400D01*
X0170100Y0090802D01*
X0170100Y0094198D01*
X0167698Y0096600D01*
X0168938Y0095360D02*
X0177601Y0095360D01*
X0178015Y0094362D02*
X0169937Y0094362D01*
X0170100Y0093363D02*
X0178773Y0093363D01*
X0180225Y0092365D02*
X0170100Y0092365D01*
X0170100Y0091366D02*
X0185650Y0091366D01*
X0185650Y0090368D02*
X0184422Y0090368D01*
X0185495Y0089369D02*
X0185650Y0089369D01*
X0185650Y0092365D02*
X0183775Y0092365D01*
X0185227Y0093363D02*
X0185650Y0093363D01*
X0179578Y0090368D02*
X0169666Y0090368D01*
X0168667Y0089369D02*
X0178505Y0089369D01*
X0177904Y0088370D02*
X0137500Y0088370D01*
X0137500Y0087372D02*
X0177500Y0087372D01*
X0177500Y0086373D02*
X0137500Y0086373D01*
X0137500Y0085375D02*
X0177595Y0085375D01*
X0178009Y0084376D02*
X0137500Y0084376D01*
X0137500Y0083378D02*
X0178758Y0083378D01*
X0180189Y0082379D02*
X0137500Y0082379D01*
X0137500Y0081381D02*
X0185650Y0081381D01*
X0185650Y0082379D02*
X0183811Y0082379D01*
X0185242Y0083378D02*
X0185650Y0083378D01*
X0185650Y0080382D02*
X0184386Y0080382D01*
X0185480Y0079384D02*
X0185650Y0079384D01*
X0179614Y0080382D02*
X0137500Y0080382D01*
X0137500Y0079384D02*
X0178520Y0079384D01*
X0177910Y0078385D02*
X0137500Y0078385D01*
X0137500Y0077387D02*
X0177500Y0077387D01*
X0177500Y0076388D02*
X0137500Y0076388D01*
X0137500Y0075390D02*
X0177589Y0075390D01*
X0178003Y0074391D02*
X0137500Y0074391D01*
X0137500Y0073393D02*
X0178743Y0073393D01*
X0180153Y0072394D02*
X0137500Y0072394D01*
X0137500Y0071396D02*
X0185650Y0071396D01*
X0185650Y0072394D02*
X0183847Y0072394D01*
X0185257Y0073393D02*
X0185650Y0073393D01*
X0185650Y0070397D02*
X0184350Y0070397D01*
X0185465Y0069399D02*
X0185650Y0069399D01*
X0179650Y0070397D02*
X0137500Y0070397D01*
X0137500Y0069399D02*
X0178535Y0069399D01*
X0177916Y0068400D02*
X0137500Y0068400D01*
X0137500Y0067402D02*
X0177503Y0067402D01*
X0177500Y0066403D02*
X0137500Y0066403D01*
X0137500Y0065405D02*
X0177583Y0065405D01*
X0177996Y0064406D02*
X0137500Y0064406D01*
X0137500Y0063408D02*
X0178728Y0063408D01*
X0180117Y0062409D02*
X0137500Y0062409D01*
X0137500Y0061411D02*
X0185650Y0061411D01*
X0185650Y0062409D02*
X0183883Y0062409D01*
X0185272Y0063408D02*
X0185650Y0063408D01*
X0185650Y0060412D02*
X0184314Y0060412D01*
X0185450Y0059414D02*
X0185650Y0059414D01*
X0179686Y0060412D02*
X0137500Y0060412D01*
X0137500Y0059414D02*
X0178550Y0059414D01*
X0177923Y0058415D02*
X0137500Y0058415D01*
X0137500Y0057417D02*
X0177509Y0057417D01*
X0177500Y0056418D02*
X0167880Y0056418D01*
X0167698Y0056600D02*
X0164302Y0056600D01*
X0161900Y0054198D01*
X0161900Y0050802D01*
X0164302Y0048400D01*
X0167698Y0048400D01*
X0170100Y0050802D01*
X0170100Y0054198D01*
X0167698Y0056600D01*
X0168879Y0055420D02*
X0177577Y0055420D01*
X0177990Y0054421D02*
X0169877Y0054421D01*
X0170100Y0053423D02*
X0178713Y0053423D01*
X0180081Y0052424D02*
X0170100Y0052424D01*
X0170100Y0051426D02*
X0185650Y0051426D01*
X0185650Y0052424D02*
X0183919Y0052424D01*
X0185287Y0053423D02*
X0185650Y0053423D01*
X0185650Y0050427D02*
X0184591Y0050427D01*
X0182500Y0050427D02*
X0181500Y0050427D01*
X0181500Y0049429D02*
X0182500Y0049429D01*
X0182500Y0048430D02*
X0181500Y0048430D01*
X0181500Y0047432D02*
X0182500Y0047432D01*
X0181500Y0046433D02*
X0151811Y0046433D01*
X0151877Y0046412D02*
X0151084Y0046669D01*
X0150260Y0046800D01*
X0150228Y0046800D01*
X0150228Y0041886D01*
X0149457Y0041886D01*
X0149457Y0046800D01*
X0149425Y0046800D01*
X0148601Y0046669D01*
X0147808Y0046412D01*
X0147065Y0046033D01*
X0146390Y0045543D01*
X0145800Y0044953D01*
X0145310Y0044278D01*
X0144931Y0043534D01*
X0144673Y0042741D01*
X0144543Y0041917D01*
X0144543Y0041886D01*
X0149457Y0041886D01*
X0149457Y0041114D01*
X0150228Y0041114D01*
X0150228Y0036200D01*
X0150260Y0036200D01*
X0151084Y0036330D01*
X0151877Y0036588D01*
X0152620Y0036967D01*
X0153295Y0037457D01*
X0153885Y0038047D01*
X0154375Y0038722D01*
X0154754Y0039466D01*
X0155012Y0040259D01*
X0155143Y0041083D01*
X0155142Y0041114D01*
X0150228Y0041114D01*
X0150228Y0041886D01*
X0155143Y0041886D01*
X0155143Y0041917D01*
X0155012Y0042741D01*
X0154754Y0043534D01*
X0154375Y0044278D01*
X0153885Y0044953D01*
X0153295Y0045543D01*
X0152620Y0046033D01*
X0151877Y0046412D01*
X0150228Y0046433D02*
X0149457Y0046433D01*
X0149457Y0045434D02*
X0150228Y0045434D01*
X0150228Y0044436D02*
X0149457Y0044436D01*
X0149457Y0043437D02*
X0150228Y0043437D01*
X0150228Y0042439D02*
X0149457Y0042439D01*
X0149457Y0041440D02*
X0139409Y0041440D01*
X0140408Y0040442D02*
X0144644Y0040442D01*
X0144673Y0040259D02*
X0144931Y0039466D01*
X0145310Y0038722D01*
X0145800Y0038047D01*
X0146390Y0037457D01*
X0147065Y0036967D01*
X0147808Y0036588D01*
X0148601Y0036330D01*
X0149425Y0036200D01*
X0149457Y0036200D01*
X0149457Y0041114D01*
X0144543Y0041114D01*
X0144543Y0041083D01*
X0144673Y0040259D01*
X0144942Y0039443D02*
X0141406Y0039443D01*
X0142405Y0038445D02*
X0145511Y0038445D01*
X0146405Y0037446D02*
X0143403Y0037446D01*
X0144402Y0036448D02*
X0148240Y0036448D01*
X0149457Y0036448D02*
X0150228Y0036448D01*
X0150228Y0037446D02*
X0149457Y0037446D01*
X0149457Y0038445D02*
X0150228Y0038445D01*
X0150228Y0039443D02*
X0149457Y0039443D01*
X0149457Y0040442D02*
X0150228Y0040442D01*
X0150228Y0041440D02*
X0185650Y0041440D01*
X0185650Y0040442D02*
X0184242Y0040442D01*
X0185421Y0039443D02*
X0185650Y0039443D01*
X0185650Y0042439D02*
X0184382Y0042439D01*
X0185584Y0043437D02*
X0185650Y0043437D01*
X0182500Y0043437D02*
X0181500Y0043437D01*
X0181500Y0042439D02*
X0182500Y0042439D01*
X0179618Y0042439D02*
X0155060Y0042439D01*
X0154786Y0043437D02*
X0178416Y0043437D01*
X0177777Y0044436D02*
X0154261Y0044436D01*
X0153403Y0045434D02*
X0177410Y0045434D01*
X0177389Y0047432D02*
X0137500Y0047432D01*
X0137500Y0048430D02*
X0164272Y0048430D01*
X0163273Y0049429D02*
X0137500Y0049429D01*
X0137500Y0050427D02*
X0162275Y0050427D01*
X0161900Y0051426D02*
X0137500Y0051426D01*
X0137500Y0052424D02*
X0161900Y0052424D01*
X0161900Y0053423D02*
X0137500Y0053423D01*
X0137500Y0054421D02*
X0162123Y0054421D01*
X0163121Y0055420D02*
X0137500Y0055420D01*
X0137500Y0056418D02*
X0164120Y0056418D01*
X0169725Y0050427D02*
X0179409Y0050427D01*
X0178318Y0049429D02*
X0168727Y0049429D01*
X0167728Y0048430D02*
X0177708Y0048430D01*
X0181500Y0045434D02*
X0182500Y0045434D01*
X0182500Y0044436D02*
X0181500Y0044436D01*
X0179758Y0040442D02*
X0155041Y0040442D01*
X0154743Y0039443D02*
X0178579Y0039443D01*
X0177935Y0038445D02*
X0154174Y0038445D01*
X0153280Y0037446D02*
X0165401Y0037446D01*
X0164402Y0036448D02*
X0151445Y0036448D01*
X0147397Y0033452D02*
X0161407Y0033452D01*
X0160408Y0032454D02*
X0148396Y0032454D01*
X0149395Y0031455D02*
X0159410Y0031455D01*
X0158411Y0030457D02*
X0150393Y0030457D01*
X0151392Y0029458D02*
X0157413Y0029458D01*
X0156414Y0028460D02*
X0152390Y0028460D01*
X0153389Y0027461D02*
X0155416Y0027461D01*
X0154417Y0026463D02*
X0154387Y0026463D01*
X0146399Y0034451D02*
X0162405Y0034451D01*
X0163404Y0035449D02*
X0145400Y0035449D01*
X0144625Y0042439D02*
X0138411Y0042439D01*
X0137500Y0043437D02*
X0144899Y0043437D01*
X0145424Y0044436D02*
X0137500Y0044436D01*
X0137500Y0045434D02*
X0146282Y0045434D01*
X0147874Y0046433D02*
X0137500Y0046433D01*
X0124500Y0048430D02*
X0119728Y0048430D01*
X0120727Y0049429D02*
X0124500Y0049429D01*
X0124500Y0050427D02*
X0121725Y0050427D01*
X0122100Y0051426D02*
X0124500Y0051426D01*
X0124500Y0052424D02*
X0122100Y0052424D01*
X0122100Y0053423D02*
X0124500Y0053423D01*
X0124500Y0054421D02*
X0121877Y0054421D01*
X0120879Y0055420D02*
X0124500Y0055420D01*
X0124500Y0056418D02*
X0119880Y0056418D01*
X0090045Y0042439D02*
X0088350Y0042439D01*
X0088350Y0043437D02*
X0088699Y0043437D01*
X0096455Y0004496D02*
X0185045Y0004496D01*
X0184060Y0003497D02*
X0097440Y0003497D01*
X0158557Y0006493D02*
X0163443Y0006493D01*
X0162445Y0007491D02*
X0159555Y0007491D01*
X0160182Y0008490D02*
X0161879Y0008490D01*
X0161500Y0009488D02*
X0161180Y0009488D01*
X0168557Y0006493D02*
X0173244Y0006493D01*
X0173537Y0006280D02*
X0172938Y0006715D01*
X0172415Y0007238D01*
X0171980Y0007837D01*
X0171644Y0008496D01*
X0171416Y0009199D01*
X0171300Y0009930D01*
X0171300Y0013000D01*
X0175500Y0013000D01*
X0175500Y0005621D01*
X0174899Y0005716D01*
X0174196Y0005944D01*
X0173537Y0006280D01*
X0172231Y0007491D02*
X0169555Y0007491D01*
X0170121Y0008490D02*
X0171648Y0008490D01*
X0171370Y0009488D02*
X0170500Y0009488D01*
X0170500Y0010487D02*
X0171300Y0010487D01*
X0171300Y0011485D02*
X0170500Y0011485D01*
X0170500Y0012484D02*
X0171300Y0012484D01*
X0170500Y0013482D02*
X0175500Y0013482D01*
X0175500Y0012484D02*
X0176500Y0012484D01*
X0176500Y0013482D02*
X0185650Y0013482D01*
X0176500Y0014481D02*
X0175500Y0014481D01*
X0175500Y0015479D02*
X0176500Y0015479D01*
X0176500Y0016478D02*
X0175500Y0016478D01*
X0175500Y0017476D02*
X0176500Y0017476D01*
X0176500Y0018475D02*
X0175500Y0018475D01*
X0175500Y0019473D02*
X0176500Y0019473D01*
X0176500Y0020472D02*
X0175500Y0020472D01*
X0173195Y0020472D02*
X0168592Y0020472D01*
X0169591Y0019473D02*
X0172205Y0019473D01*
X0171635Y0018475D02*
X0170136Y0018475D01*
X0170500Y0017476D02*
X0171364Y0017476D01*
X0171300Y0016478D02*
X0170500Y0016478D01*
X0170500Y0015479D02*
X0171300Y0015479D01*
X0171300Y0014481D02*
X0170500Y0014481D01*
X0175500Y0011485D02*
X0176500Y0011485D01*
X0176500Y0010487D02*
X0175500Y0010487D01*
X0175500Y0009488D02*
X0176500Y0009488D01*
X0176500Y0008490D02*
X0175500Y0008490D01*
X0175500Y0007491D02*
X0176500Y0007491D01*
X0176500Y0006493D02*
X0175500Y0006493D01*
X0183991Y0032454D02*
X0185650Y0032454D01*
X0185650Y0033452D02*
X0185316Y0033452D01*
X0163333Y0089369D02*
X0137500Y0089369D01*
X0137500Y0090368D02*
X0162334Y0090368D01*
X0161900Y0091366D02*
X0137500Y0091366D01*
X0137500Y0092365D02*
X0161900Y0092365D01*
X0161900Y0093363D02*
X0137500Y0093363D01*
X0137500Y0094362D02*
X0162063Y0094362D01*
X0163062Y0095360D02*
X0137500Y0095360D01*
X0137500Y0096359D02*
X0164060Y0096359D01*
X0154301Y0110338D02*
X0177599Y0110338D01*
X0185650Y0111336D02*
X0155185Y0111336D01*
X0155755Y0112335D02*
X0185650Y0112335D01*
X0185650Y0113333D02*
X0156069Y0113333D01*
X0156174Y0115000D02*
X0156050Y0115788D01*
X0155782Y0116611D01*
X0155389Y0117383D01*
X0154880Y0118083D01*
X0154268Y0118695D01*
X0153568Y0119204D01*
X0152796Y0119597D01*
X0151973Y0119865D01*
X0151185Y0119989D01*
X0151185Y0115000D01*
X0156174Y0115000D01*
X0156122Y0115330D02*
X0185650Y0115330D01*
X0185650Y0114332D02*
X0151185Y0114332D01*
X0151185Y0115330D02*
X0150185Y0115330D01*
X0150185Y0116329D02*
X0151185Y0116329D01*
X0151185Y0117327D02*
X0150185Y0117327D01*
X0150185Y0118326D02*
X0151185Y0118326D01*
X0151185Y0119324D02*
X0150185Y0119324D01*
X0153332Y0119324D02*
X0185650Y0119324D01*
X0185650Y0118326D02*
X0154637Y0118326D01*
X0155417Y0117327D02*
X0185650Y0117327D01*
X0185650Y0116329D02*
X0155874Y0116329D01*
X0184253Y0129309D02*
X0089747Y0129309D01*
X0088875Y0128311D02*
X0185125Y0128311D01*
X0185538Y0127312D02*
X0088462Y0127312D01*
X0088350Y0126314D02*
X0185650Y0126314D01*
X0185650Y0125315D02*
X0088350Y0125315D01*
X0088350Y0124317D02*
X0185650Y0124317D01*
X0185650Y0123318D02*
X0088350Y0123318D01*
X0088350Y0122320D02*
X0185650Y0122320D01*
X0089578Y0090368D02*
X0088350Y0090368D01*
X0088350Y0089369D02*
X0088505Y0089369D01*
D19*
X0131000Y0114500D02*
X0131000Y0042343D01*
X0130157Y0041500D01*
X0119000Y0041500D01*
X0108000Y0019343D01*
X0108000Y0013500D01*
X0130157Y0041500D02*
X0151079Y0020579D01*
X0156000Y0015657D01*
X0156000Y0013500D01*
M02*
