G75*
%MOIN*%
%OFA0B0*%
%FSLAX25Y25*%
%IPPOS*%
%LPD*%
%AMOC8*
5,1,8,0,0,1.08239X$1,22.5*
%
%ADD10C,0.00500*%
%ADD11C,0.00700*%
%ADD12C,0.00600*%
%ADD13C,0.00200*%
%ADD14C,0.00800*%
%ADD15R,0.02400X0.03400*%
%ADD16C,0.01600*%
D10*
X0004415Y0011750D02*
X0003247Y0012918D01*
X0003831Y0014205D02*
X0006166Y0014205D01*
X0006750Y0014789D01*
X0006750Y0015957D01*
X0006166Y0016541D01*
X0006750Y0017889D02*
X0005582Y0019056D01*
X0004415Y0019056D01*
X0003247Y0017889D01*
X0003831Y0016541D02*
X0003247Y0015957D01*
X0003247Y0014789D01*
X0003831Y0014205D01*
X0005582Y0011750D02*
X0006750Y0012918D01*
X0005582Y0011750D02*
X0004415Y0011750D01*
X0003831Y0020344D02*
X0003247Y0020928D01*
X0003247Y0022095D01*
X0003831Y0022679D01*
X0004415Y0022679D01*
X0006750Y0020344D01*
X0006750Y0022679D01*
X0006166Y0024027D02*
X0003831Y0024027D01*
X0003247Y0024611D01*
X0003247Y0025779D01*
X0003831Y0026362D01*
X0006166Y0024027D01*
X0006750Y0024611D01*
X0006750Y0025779D01*
X0006166Y0026362D01*
X0003831Y0026362D01*
X0004415Y0027710D02*
X0003247Y0028878D01*
X0006750Y0028878D01*
X0006750Y0027710D02*
X0006750Y0030046D01*
X0006166Y0031393D02*
X0004999Y0031393D01*
X0004999Y0033145D01*
X0005582Y0033729D01*
X0006166Y0033729D01*
X0006750Y0033145D01*
X0006750Y0031977D01*
X0006166Y0031393D01*
X0004999Y0031393D02*
X0003831Y0032561D01*
X0003247Y0033729D01*
X0003831Y0038760D02*
X0003247Y0039344D01*
X0003247Y0040511D01*
X0003831Y0041095D01*
X0004999Y0040511D02*
X0005582Y0041095D01*
X0006166Y0041095D01*
X0006750Y0040511D01*
X0006750Y0039344D01*
X0006166Y0038760D01*
X0004999Y0039344D02*
X0004999Y0040511D01*
X0004999Y0039344D02*
X0004415Y0038760D01*
X0003831Y0038760D01*
X0004415Y0042443D02*
X0006166Y0042443D01*
X0006750Y0043027D01*
X0006750Y0044778D01*
X0004415Y0044778D01*
X0004415Y0046126D02*
X0004415Y0047877D01*
X0004999Y0048461D01*
X0006166Y0048461D01*
X0006750Y0047877D01*
X0006750Y0046126D01*
X0007918Y0046126D02*
X0004415Y0046126D01*
X0004999Y0049809D02*
X0004415Y0050393D01*
X0004415Y0051561D01*
X0004999Y0052144D01*
X0005582Y0052144D01*
X0005582Y0049809D01*
X0004999Y0049809D02*
X0006166Y0049809D01*
X0006750Y0050393D01*
X0006750Y0051561D01*
X0006750Y0053492D02*
X0004415Y0053492D01*
X0005582Y0053492D02*
X0004415Y0054660D01*
X0004415Y0055244D01*
X0004999Y0056562D02*
X0004999Y0058897D01*
X0004999Y0060245D02*
X0006166Y0060245D01*
X0006750Y0060829D01*
X0006750Y0061996D01*
X0006166Y0062580D01*
X0004999Y0062580D01*
X0004415Y0061996D01*
X0004415Y0060829D01*
X0004999Y0060245D01*
X0006750Y0058897D02*
X0003247Y0058897D01*
X0003247Y0056562D02*
X0006750Y0056562D01*
X0006166Y0063928D02*
X0004415Y0063928D01*
X0006166Y0063928D02*
X0006750Y0064512D01*
X0006750Y0066263D01*
X0004415Y0066263D01*
X0004999Y0067611D02*
X0004415Y0068195D01*
X0004415Y0069946D01*
X0005582Y0069363D02*
X0005582Y0068195D01*
X0004999Y0067611D01*
X0006750Y0067611D02*
X0006750Y0069363D01*
X0006166Y0069946D01*
X0005582Y0069363D01*
X0005582Y0071294D02*
X0005582Y0073629D01*
X0004999Y0073629D01*
X0004415Y0073046D01*
X0004415Y0071878D01*
X0004999Y0071294D01*
X0006166Y0071294D01*
X0006750Y0071878D01*
X0006750Y0073046D01*
X0006750Y0078660D02*
X0003247Y0078660D01*
X0003247Y0080412D01*
X0003831Y0080996D01*
X0004999Y0080996D01*
X0005582Y0080412D01*
X0005582Y0078660D01*
X0004415Y0082344D02*
X0004415Y0083511D01*
X0003831Y0082927D02*
X0006166Y0082927D01*
X0006750Y0083511D01*
X0006166Y0084799D02*
X0004415Y0084799D01*
X0006166Y0084799D02*
X0006750Y0085383D01*
X0006750Y0087134D01*
X0007334Y0087134D02*
X0007918Y0086551D01*
X0007918Y0085967D01*
X0007334Y0087134D02*
X0004415Y0087134D01*
X0003247Y0092165D02*
X0006750Y0092165D01*
X0006750Y0094501D01*
X0006166Y0096432D02*
X0003831Y0096432D01*
X0004415Y0095848D02*
X0004415Y0097016D01*
X0004999Y0098304D02*
X0004415Y0098888D01*
X0004415Y0100639D01*
X0003247Y0100639D02*
X0006750Y0100639D01*
X0006750Y0098888D01*
X0006166Y0098304D01*
X0004999Y0098304D01*
X0006750Y0097016D02*
X0006166Y0096432D01*
X0098250Y0096751D02*
X0100252Y0096751D01*
X0100252Y0097252D02*
X0099251Y0098253D01*
X0098250Y0097252D01*
X0098250Y0095250D01*
X0100252Y0095250D02*
X0100252Y0097252D01*
X0101473Y0097752D02*
X0101973Y0098253D01*
X0102974Y0098253D01*
X0103474Y0097752D01*
X0101473Y0095750D01*
X0101973Y0095250D01*
X0102974Y0095250D01*
X0103474Y0095750D01*
X0103474Y0097752D01*
X0101473Y0097752D02*
X0101473Y0095750D01*
X0101973Y0088253D02*
X0102974Y0088253D01*
X0103474Y0087752D01*
X0101473Y0085750D01*
X0101973Y0085250D01*
X0102974Y0085250D01*
X0103474Y0085750D01*
X0103474Y0087752D01*
X0101973Y0088253D02*
X0101473Y0087752D01*
X0101473Y0085750D01*
X0100252Y0085750D02*
X0100252Y0087752D01*
X0099751Y0088253D01*
X0098250Y0088253D01*
X0098250Y0085250D01*
X0099751Y0085250D01*
X0100252Y0085750D01*
X0099751Y0078253D02*
X0098250Y0078253D01*
X0098250Y0075250D01*
X0099751Y0075250D01*
X0100252Y0075750D01*
X0100252Y0077752D01*
X0099751Y0078253D01*
X0101473Y0078253D02*
X0101473Y0076751D01*
X0102474Y0077252D01*
X0102974Y0077252D01*
X0103474Y0076751D01*
X0103474Y0075750D01*
X0102974Y0075250D01*
X0101973Y0075250D01*
X0101473Y0075750D01*
X0101473Y0078253D02*
X0103474Y0078253D01*
X0103474Y0068253D02*
X0102474Y0067752D01*
X0101473Y0066751D01*
X0102974Y0066751D01*
X0103474Y0066251D01*
X0103474Y0065750D01*
X0102974Y0065250D01*
X0101973Y0065250D01*
X0101473Y0065750D01*
X0101473Y0066751D01*
X0100252Y0065750D02*
X0100252Y0067752D01*
X0099751Y0068253D01*
X0098250Y0068253D01*
X0098250Y0065250D01*
X0099751Y0065250D01*
X0100252Y0065750D01*
X0099751Y0058253D02*
X0098250Y0058253D01*
X0098250Y0055250D01*
X0099751Y0055250D01*
X0100252Y0055750D01*
X0100252Y0057752D01*
X0099751Y0058253D01*
X0101473Y0058253D02*
X0103474Y0058253D01*
X0103474Y0057752D01*
X0101473Y0055750D01*
X0101473Y0055250D01*
X0101973Y0048253D02*
X0102974Y0048253D01*
X0103474Y0047752D01*
X0103474Y0047252D01*
X0102974Y0046751D01*
X0101973Y0046751D01*
X0101473Y0047252D01*
X0101473Y0047752D01*
X0101973Y0048253D01*
X0101973Y0046751D02*
X0101473Y0046251D01*
X0101473Y0045750D01*
X0101973Y0045250D01*
X0102974Y0045250D01*
X0103474Y0045750D01*
X0103474Y0046251D01*
X0102974Y0046751D01*
X0100252Y0045750D02*
X0100252Y0047752D01*
X0099751Y0048253D01*
X0098250Y0048253D01*
X0098250Y0045250D01*
X0099751Y0045250D01*
X0100252Y0045750D01*
X0099601Y0037952D02*
X0100052Y0037502D01*
X0100052Y0037052D01*
X0099601Y0036601D01*
X0100052Y0036151D01*
X0100052Y0035700D01*
X0099601Y0035250D01*
X0098700Y0035250D01*
X0098250Y0035700D01*
X0099151Y0036601D02*
X0099601Y0036601D01*
X0099601Y0037952D02*
X0098700Y0037952D01*
X0098250Y0037502D01*
X0101197Y0037952D02*
X0101197Y0036151D01*
X0102097Y0035250D01*
X0102998Y0036151D01*
X0102998Y0037952D01*
X0104143Y0037502D02*
X0104593Y0037952D01*
X0105494Y0037952D01*
X0105945Y0037502D01*
X0105945Y0037052D01*
X0105494Y0036601D01*
X0105945Y0036151D01*
X0105945Y0035700D01*
X0105494Y0035250D01*
X0104593Y0035250D01*
X0104143Y0035700D01*
X0105044Y0036601D02*
X0105494Y0036601D01*
X0170250Y0036601D02*
X0171151Y0037052D01*
X0171601Y0037052D01*
X0172052Y0036601D01*
X0172052Y0035700D01*
X0171601Y0035250D01*
X0170700Y0035250D01*
X0170250Y0035700D01*
X0170250Y0036601D02*
X0170250Y0037952D01*
X0172052Y0037952D01*
X0173197Y0037952D02*
X0173197Y0036151D01*
X0174097Y0035250D01*
X0174998Y0036151D01*
X0174998Y0037952D01*
X0174601Y0045250D02*
X0175052Y0045700D01*
X0175052Y0046601D01*
X0174151Y0046601D01*
X0175052Y0047502D02*
X0174601Y0047952D01*
X0173700Y0047952D01*
X0173250Y0047502D01*
X0173250Y0045700D01*
X0173700Y0045250D01*
X0174601Y0045250D01*
X0174974Y0055250D02*
X0174974Y0058253D01*
X0173473Y0056751D01*
X0175474Y0056751D01*
X0172252Y0055750D02*
X0172252Y0057752D01*
X0171751Y0058253D01*
X0170250Y0058253D01*
X0170250Y0055250D01*
X0171751Y0055250D01*
X0172252Y0055750D01*
X0171751Y0065250D02*
X0170250Y0065250D01*
X0170250Y0068253D01*
X0171751Y0068253D01*
X0172252Y0067752D01*
X0172252Y0065750D01*
X0171751Y0065250D01*
X0173473Y0065750D02*
X0173973Y0065250D01*
X0174974Y0065250D01*
X0175474Y0065750D01*
X0175474Y0066251D01*
X0174974Y0066751D01*
X0174474Y0066751D01*
X0174974Y0066751D02*
X0175474Y0067252D01*
X0175474Y0067752D01*
X0174974Y0068253D01*
X0173973Y0068253D01*
X0173473Y0067752D01*
X0173473Y0075250D02*
X0175474Y0077252D01*
X0175474Y0077752D01*
X0174974Y0078253D01*
X0173973Y0078253D01*
X0173473Y0077752D01*
X0172252Y0077752D02*
X0171751Y0078253D01*
X0170250Y0078253D01*
X0170250Y0075250D01*
X0171751Y0075250D01*
X0172252Y0075750D01*
X0172252Y0077752D01*
X0173473Y0075250D02*
X0175474Y0075250D01*
X0175474Y0085250D02*
X0173473Y0085250D01*
X0174474Y0085250D02*
X0174474Y0088253D01*
X0173473Y0087252D01*
X0172252Y0087752D02*
X0172252Y0085750D01*
X0171751Y0085250D01*
X0170250Y0085250D01*
X0170250Y0088253D01*
X0171751Y0088253D01*
X0172252Y0087752D01*
X0172252Y0095250D02*
X0171251Y0096251D01*
X0171751Y0096251D02*
X0170250Y0096251D01*
X0170250Y0095250D02*
X0170250Y0098253D01*
X0171751Y0098253D01*
X0172252Y0097752D01*
X0172252Y0096751D01*
X0171751Y0096251D01*
X0173473Y0095250D02*
X0175474Y0098253D01*
X0173473Y0098253D02*
X0175474Y0095250D01*
X0175474Y0105250D02*
X0173473Y0108253D01*
X0172252Y0108253D02*
X0170250Y0108253D01*
X0171251Y0108253D02*
X0171251Y0105250D01*
X0173473Y0105250D02*
X0175474Y0108253D01*
X0105945Y0107952D02*
X0104143Y0107952D01*
X0105044Y0107952D02*
X0105044Y0105250D01*
X0102998Y0105700D02*
X0102548Y0105250D01*
X0101647Y0105250D01*
X0101197Y0105700D01*
X0101647Y0106601D02*
X0102548Y0106601D01*
X0102998Y0106151D01*
X0102998Y0105700D01*
X0101647Y0106601D02*
X0101197Y0107052D01*
X0101197Y0107502D01*
X0101647Y0107952D01*
X0102548Y0107952D01*
X0102998Y0107502D01*
X0100052Y0107502D02*
X0100052Y0106601D01*
X0099601Y0106151D01*
X0098250Y0106151D01*
X0099151Y0106151D02*
X0100052Y0105250D01*
X0098250Y0105250D02*
X0098250Y0107952D01*
X0099601Y0107952D01*
X0100052Y0107502D01*
D11*
X0055581Y0112951D02*
X0053380Y0112951D01*
X0053380Y0113501D02*
X0053380Y0112400D01*
X0053930Y0111850D01*
X0055031Y0111850D01*
X0055581Y0112951D02*
X0055581Y0113501D01*
X0055031Y0114052D01*
X0053930Y0114052D01*
X0053380Y0113501D01*
X0051898Y0113501D02*
X0051898Y0111850D01*
X0051898Y0113501D02*
X0051348Y0114052D01*
X0049696Y0114052D01*
X0049696Y0111850D01*
X0048342Y0111850D02*
X0047241Y0111850D01*
X0047791Y0111850D02*
X0047791Y0114052D01*
X0047241Y0114052D01*
X0047791Y0115153D02*
X0047791Y0115703D01*
X0045336Y0115153D02*
X0045336Y0111850D01*
X0044786Y0111850D02*
X0045886Y0111850D01*
X0043431Y0111850D02*
X0042881Y0112400D01*
X0042881Y0114602D01*
X0043431Y0114052D02*
X0042330Y0114052D01*
X0040849Y0114052D02*
X0040849Y0111850D01*
X0039197Y0111850D01*
X0038647Y0112400D01*
X0038647Y0114052D01*
X0037166Y0114602D02*
X0037166Y0112400D01*
X0036615Y0111850D01*
X0035514Y0111850D01*
X0034964Y0112400D01*
X0034964Y0114602D01*
X0035514Y0115153D01*
X0036615Y0115153D01*
X0037166Y0114602D01*
X0037419Y0117450D02*
X0038520Y0117450D01*
X0037970Y0117450D02*
X0037970Y0119652D01*
X0037419Y0119652D01*
X0037970Y0120753D02*
X0037970Y0121303D01*
X0035938Y0120753D02*
X0035938Y0117450D01*
X0034837Y0119652D02*
X0035938Y0120753D01*
X0034837Y0119652D02*
X0033736Y0120753D01*
X0033736Y0117450D01*
X0029799Y0115153D02*
X0029799Y0111850D01*
X0028148Y0111850D01*
X0027598Y0112400D01*
X0027598Y0113501D01*
X0028148Y0114052D01*
X0029799Y0114052D01*
X0026243Y0111850D02*
X0025142Y0111850D01*
X0025693Y0111850D02*
X0025693Y0115153D01*
X0025142Y0115153D01*
X0023661Y0113501D02*
X0023661Y0112951D01*
X0021459Y0112951D01*
X0021459Y0113501D02*
X0021459Y0112400D01*
X0022009Y0111850D01*
X0023110Y0111850D01*
X0023661Y0113501D02*
X0023110Y0114052D01*
X0022009Y0114052D01*
X0021459Y0113501D01*
X0019554Y0114052D02*
X0019554Y0111850D01*
X0019004Y0111850D02*
X0020104Y0111850D01*
X0019554Y0114052D02*
X0019004Y0114052D01*
X0019554Y0115153D02*
X0019554Y0115703D01*
X0017522Y0113501D02*
X0017522Y0111850D01*
X0017522Y0113501D02*
X0016972Y0114052D01*
X0015871Y0114052D01*
X0015320Y0113501D01*
X0013839Y0112951D02*
X0013839Y0112400D01*
X0013289Y0111850D01*
X0012188Y0111850D01*
X0011637Y0112400D01*
X0012188Y0113501D02*
X0013289Y0113501D01*
X0013839Y0112951D01*
X0012188Y0113501D02*
X0011637Y0114052D01*
X0011637Y0114602D01*
X0012188Y0115153D01*
X0013289Y0115153D01*
X0013839Y0114602D01*
X0015320Y0115153D02*
X0015320Y0111850D01*
X0022687Y0117450D02*
X0024338Y0117450D01*
X0024889Y0118000D01*
X0024889Y0120202D01*
X0024338Y0120753D01*
X0022687Y0120753D01*
X0022687Y0117450D01*
X0026370Y0117450D02*
X0028572Y0117450D01*
X0027471Y0117450D02*
X0027471Y0120753D01*
X0026370Y0119652D01*
X0039875Y0119652D02*
X0039875Y0117450D01*
X0042077Y0117450D02*
X0042077Y0119101D01*
X0041526Y0119652D01*
X0039875Y0119652D01*
X0043558Y0119652D02*
X0044108Y0119652D01*
X0044108Y0117450D01*
X0043558Y0117450D02*
X0044659Y0117450D01*
X0044786Y0115153D02*
X0045336Y0115153D01*
X0044108Y0120753D02*
X0044108Y0121303D01*
D12*
X0041874Y0105402D02*
X0041007Y0105402D01*
X0041441Y0105402D02*
X0041441Y0103234D01*
X0041007Y0102800D01*
X0040573Y0102800D01*
X0040140Y0103234D01*
X0043086Y0103234D02*
X0043086Y0104101D01*
X0043520Y0104535D01*
X0044387Y0104535D01*
X0044821Y0104101D01*
X0044821Y0103234D01*
X0044387Y0102800D01*
X0043520Y0102800D01*
X0043086Y0103234D01*
X0046033Y0102800D02*
X0046033Y0104535D01*
X0047334Y0104535D01*
X0047767Y0104101D01*
X0047767Y0102800D01*
X0051926Y0103234D02*
X0052359Y0102800D01*
X0053227Y0102800D01*
X0053660Y0103234D01*
X0053660Y0104969D01*
X0053227Y0105402D01*
X0052359Y0105402D01*
X0051926Y0104969D01*
X0051926Y0103234D01*
X0054872Y0102800D02*
X0056607Y0104535D01*
X0057819Y0104101D02*
X0058252Y0104535D01*
X0059120Y0104535D01*
X0059553Y0104101D01*
X0059553Y0103667D01*
X0057819Y0103667D01*
X0057819Y0103234D02*
X0057819Y0104101D01*
X0057819Y0103234D02*
X0058252Y0102800D01*
X0059120Y0102800D01*
X0060765Y0102800D02*
X0060765Y0104535D01*
X0061633Y0104535D02*
X0062066Y0104535D01*
X0061633Y0104535D02*
X0060765Y0103667D01*
X0056607Y0102800D02*
X0054872Y0104535D01*
X0035981Y0104535D02*
X0035981Y0102366D01*
X0035548Y0101933D01*
X0035114Y0101933D01*
X0034680Y0102800D02*
X0035981Y0102800D01*
X0034680Y0102800D02*
X0034247Y0103234D01*
X0034247Y0104535D01*
X0033035Y0104101D02*
X0033035Y0103234D01*
X0032601Y0102800D01*
X0031300Y0102800D01*
X0031300Y0105402D01*
X0031300Y0104535D02*
X0032601Y0104535D01*
X0033035Y0104101D01*
X0090300Y0121800D02*
X0093503Y0121800D01*
X0094570Y0122868D01*
X0094570Y0123935D01*
X0093503Y0125003D01*
X0090300Y0125003D01*
X0090300Y0128205D02*
X0090300Y0121800D01*
X0093503Y0125003D02*
X0094570Y0126070D01*
X0094570Y0127138D01*
X0093503Y0128205D01*
X0090300Y0128205D01*
X0096745Y0128205D02*
X0096745Y0121800D01*
X0101016Y0121800D01*
X0103191Y0121800D02*
X0103191Y0126070D01*
X0105326Y0128205D01*
X0107461Y0126070D01*
X0107461Y0121800D01*
X0109636Y0121800D02*
X0109636Y0128205D01*
X0111772Y0126070D01*
X0113907Y0128205D01*
X0113907Y0121800D01*
X0107461Y0125003D02*
X0103191Y0125003D01*
X0098881Y0125003D02*
X0096745Y0125003D01*
X0096745Y0128205D02*
X0101016Y0128205D01*
X0114500Y0085000D02*
X0121500Y0085000D01*
X0121560Y0084998D01*
X0121621Y0084993D01*
X0121680Y0084984D01*
X0121739Y0084971D01*
X0121798Y0084955D01*
X0121855Y0084935D01*
X0121910Y0084912D01*
X0121965Y0084885D01*
X0122017Y0084856D01*
X0122068Y0084823D01*
X0122117Y0084787D01*
X0122163Y0084749D01*
X0122207Y0084707D01*
X0122249Y0084663D01*
X0122287Y0084617D01*
X0122323Y0084568D01*
X0122356Y0084517D01*
X0122385Y0084465D01*
X0122412Y0084410D01*
X0122435Y0084355D01*
X0122455Y0084298D01*
X0122471Y0084239D01*
X0122484Y0084180D01*
X0122493Y0084121D01*
X0122498Y0084060D01*
X0122500Y0084000D01*
X0122500Y0082500D01*
X0122000Y0082000D01*
X0122000Y0063000D01*
X0122500Y0062500D01*
X0122500Y0061000D01*
X0122498Y0060940D01*
X0122493Y0060879D01*
X0122484Y0060820D01*
X0122471Y0060761D01*
X0122455Y0060702D01*
X0122435Y0060645D01*
X0122412Y0060590D01*
X0122385Y0060535D01*
X0122356Y0060483D01*
X0122323Y0060432D01*
X0122287Y0060383D01*
X0122249Y0060337D01*
X0122207Y0060293D01*
X0122163Y0060251D01*
X0122117Y0060213D01*
X0122068Y0060177D01*
X0122017Y0060144D01*
X0121965Y0060115D01*
X0121910Y0060088D01*
X0121855Y0060065D01*
X0121798Y0060045D01*
X0121739Y0060029D01*
X0121680Y0060016D01*
X0121621Y0060007D01*
X0121560Y0060002D01*
X0121500Y0060000D01*
X0114500Y0060000D01*
X0114440Y0060002D01*
X0114379Y0060007D01*
X0114320Y0060016D01*
X0114261Y0060029D01*
X0114202Y0060045D01*
X0114145Y0060065D01*
X0114090Y0060088D01*
X0114035Y0060115D01*
X0113983Y0060144D01*
X0113932Y0060177D01*
X0113883Y0060213D01*
X0113837Y0060251D01*
X0113793Y0060293D01*
X0113751Y0060337D01*
X0113713Y0060383D01*
X0113677Y0060432D01*
X0113644Y0060483D01*
X0113615Y0060535D01*
X0113588Y0060590D01*
X0113565Y0060645D01*
X0113545Y0060702D01*
X0113529Y0060761D01*
X0113516Y0060820D01*
X0113507Y0060879D01*
X0113502Y0060940D01*
X0113500Y0061000D01*
X0113500Y0062500D01*
X0114000Y0063000D01*
X0114000Y0082000D01*
X0113500Y0082500D01*
X0113500Y0084000D01*
X0113502Y0084060D01*
X0113507Y0084121D01*
X0113516Y0084180D01*
X0113529Y0084239D01*
X0113545Y0084298D01*
X0113565Y0084355D01*
X0113588Y0084410D01*
X0113615Y0084465D01*
X0113644Y0084517D01*
X0113677Y0084568D01*
X0113713Y0084617D01*
X0113751Y0084663D01*
X0113793Y0084707D01*
X0113837Y0084749D01*
X0113883Y0084787D01*
X0113932Y0084823D01*
X0113983Y0084856D01*
X0114035Y0084885D01*
X0114090Y0084912D01*
X0114145Y0084935D01*
X0114202Y0084955D01*
X0114261Y0084971D01*
X0114320Y0084984D01*
X0114379Y0084993D01*
X0114440Y0084998D01*
X0114500Y0085000D01*
X0161500Y0084000D02*
X0161500Y0082500D01*
X0162000Y0082000D01*
X0162000Y0063000D01*
X0161500Y0062500D01*
X0161500Y0061000D01*
X0161502Y0060940D01*
X0161507Y0060879D01*
X0161516Y0060820D01*
X0161529Y0060761D01*
X0161545Y0060702D01*
X0161565Y0060645D01*
X0161588Y0060590D01*
X0161615Y0060535D01*
X0161644Y0060483D01*
X0161677Y0060432D01*
X0161713Y0060383D01*
X0161751Y0060337D01*
X0161793Y0060293D01*
X0161837Y0060251D01*
X0161883Y0060213D01*
X0161932Y0060177D01*
X0161983Y0060144D01*
X0162035Y0060115D01*
X0162090Y0060088D01*
X0162145Y0060065D01*
X0162202Y0060045D01*
X0162261Y0060029D01*
X0162320Y0060016D01*
X0162379Y0060007D01*
X0162440Y0060002D01*
X0162500Y0060000D01*
X0169500Y0060000D01*
X0169560Y0060002D01*
X0169621Y0060007D01*
X0169680Y0060016D01*
X0169739Y0060029D01*
X0169798Y0060045D01*
X0169855Y0060065D01*
X0169910Y0060088D01*
X0169965Y0060115D01*
X0170017Y0060144D01*
X0170068Y0060177D01*
X0170117Y0060213D01*
X0170163Y0060251D01*
X0170207Y0060293D01*
X0170249Y0060337D01*
X0170287Y0060383D01*
X0170323Y0060432D01*
X0170356Y0060483D01*
X0170385Y0060535D01*
X0170412Y0060590D01*
X0170435Y0060645D01*
X0170455Y0060702D01*
X0170471Y0060761D01*
X0170484Y0060820D01*
X0170493Y0060879D01*
X0170498Y0060940D01*
X0170500Y0061000D01*
X0170500Y0062500D01*
X0170000Y0063000D01*
X0170000Y0082000D01*
X0170500Y0082500D01*
X0170500Y0084000D01*
X0170498Y0084060D01*
X0170493Y0084121D01*
X0170484Y0084180D01*
X0170471Y0084239D01*
X0170455Y0084298D01*
X0170435Y0084355D01*
X0170412Y0084410D01*
X0170385Y0084465D01*
X0170356Y0084517D01*
X0170323Y0084568D01*
X0170287Y0084617D01*
X0170249Y0084663D01*
X0170207Y0084707D01*
X0170163Y0084749D01*
X0170117Y0084787D01*
X0170068Y0084823D01*
X0170017Y0084856D01*
X0169965Y0084885D01*
X0169910Y0084912D01*
X0169855Y0084935D01*
X0169798Y0084955D01*
X0169739Y0084971D01*
X0169680Y0084984D01*
X0169621Y0084993D01*
X0169560Y0084998D01*
X0169500Y0085000D01*
X0162500Y0085000D01*
X0162440Y0084998D01*
X0162379Y0084993D01*
X0162320Y0084984D01*
X0162261Y0084971D01*
X0162202Y0084955D01*
X0162145Y0084935D01*
X0162090Y0084912D01*
X0162035Y0084885D01*
X0161983Y0084856D01*
X0161932Y0084823D01*
X0161883Y0084787D01*
X0161837Y0084749D01*
X0161793Y0084707D01*
X0161751Y0084663D01*
X0161713Y0084617D01*
X0161677Y0084568D01*
X0161644Y0084517D01*
X0161615Y0084465D01*
X0161588Y0084410D01*
X0161565Y0084355D01*
X0161545Y0084298D01*
X0161529Y0084239D01*
X0161516Y0084180D01*
X0161507Y0084121D01*
X0161502Y0084060D01*
X0161500Y0084000D01*
X0163500Y0018500D02*
X0168500Y0018500D01*
X0171000Y0016000D01*
X0173500Y0018500D01*
X0178500Y0018500D01*
X0181000Y0016000D01*
X0181000Y0011000D01*
X0178500Y0008500D01*
X0173500Y0008500D01*
X0171000Y0011000D01*
X0168500Y0008500D01*
X0163500Y0008500D01*
X0161000Y0011000D01*
X0158500Y0008500D01*
X0153500Y0008500D01*
X0151000Y0011000D01*
X0151000Y0016000D01*
X0153500Y0018500D01*
X0158500Y0018500D01*
X0161000Y0016000D01*
X0163500Y0018500D01*
X0161000Y0016000D02*
X0161000Y0011000D01*
X0171000Y0011000D02*
X0171000Y0016000D01*
X0133000Y0016000D02*
X0133000Y0011000D01*
X0130500Y0008500D01*
X0125500Y0008500D01*
X0123000Y0011000D01*
X0120500Y0008500D01*
X0115500Y0008500D01*
X0113000Y0011000D01*
X0110500Y0008500D01*
X0105500Y0008500D01*
X0103000Y0011000D01*
X0103000Y0016000D01*
X0105500Y0018500D01*
X0110500Y0018500D01*
X0113000Y0016000D01*
X0115500Y0018500D01*
X0120500Y0018500D01*
X0123000Y0016000D01*
X0125500Y0018500D01*
X0130500Y0018500D01*
X0133000Y0016000D01*
X0123000Y0016000D02*
X0123000Y0011000D01*
X0113000Y0011000D02*
X0113000Y0016000D01*
D13*
X0112828Y0117600D02*
X0112828Y0119802D01*
X0112094Y0119068D01*
X0111352Y0119435D02*
X0109884Y0117967D01*
X0110251Y0117600D01*
X0110985Y0117600D01*
X0111352Y0117967D01*
X0111352Y0119435D01*
X0110985Y0119802D01*
X0110251Y0119802D01*
X0109884Y0119435D01*
X0109884Y0117967D01*
X0109142Y0117600D02*
X0107674Y0117600D01*
X0109142Y0119068D01*
X0109142Y0119435D01*
X0108775Y0119802D01*
X0108041Y0119802D01*
X0107674Y0119435D01*
X0106198Y0119802D02*
X0106198Y0117600D01*
X0105464Y0117600D02*
X0106932Y0117600D01*
X0105464Y0119068D02*
X0106198Y0119802D01*
X0104722Y0119435D02*
X0104722Y0119068D01*
X0104355Y0118701D01*
X0103621Y0118701D01*
X0103254Y0119068D01*
X0103254Y0119435D01*
X0103621Y0119802D01*
X0104355Y0119802D01*
X0104722Y0119435D01*
X0104355Y0118701D02*
X0104722Y0118334D01*
X0104722Y0117967D01*
X0104355Y0117600D01*
X0103621Y0117600D01*
X0103254Y0117967D01*
X0103254Y0118334D01*
X0103621Y0118701D01*
X0102512Y0117600D02*
X0101044Y0117600D01*
X0101778Y0117600D02*
X0101778Y0119802D01*
X0101044Y0119068D01*
X0100302Y0119435D02*
X0098835Y0117967D01*
X0099202Y0117600D01*
X0099936Y0117600D01*
X0100302Y0117967D01*
X0100302Y0119435D01*
X0099936Y0119802D01*
X0099202Y0119802D01*
X0098835Y0119435D01*
X0098835Y0117967D01*
X0098093Y0117600D02*
X0096625Y0117600D01*
X0098093Y0119068D01*
X0098093Y0119435D01*
X0097726Y0119802D01*
X0096992Y0119802D01*
X0096625Y0119435D01*
X0095887Y0117967D02*
X0095887Y0117600D01*
X0095520Y0117600D01*
X0095520Y0117967D01*
X0095887Y0117967D01*
X0094778Y0117600D02*
X0093310Y0117600D01*
X0094044Y0117600D02*
X0094044Y0119802D01*
X0093310Y0119068D01*
X0092568Y0119068D02*
X0091834Y0117600D01*
X0091100Y0119068D01*
X0112094Y0117600D02*
X0113562Y0117600D01*
D14*
X0118795Y0105445D02*
X0162890Y0105445D01*
X0162890Y0101508D01*
X0118795Y0101508D01*
X0118795Y0105445D01*
X0118795Y0131035D01*
X0162890Y0131035D01*
X0162890Y0105445D01*
X0177000Y0104000D02*
X0177000Y0109000D01*
X0179500Y0111500D01*
X0184500Y0111500D01*
X0187000Y0109000D01*
X0187000Y0104000D01*
X0184500Y0101500D01*
X0187000Y0099000D01*
X0187000Y0094000D01*
X0184500Y0091500D01*
X0187000Y0089000D01*
X0187000Y0084000D01*
X0184500Y0081500D01*
X0187000Y0079000D01*
X0187000Y0074000D01*
X0184500Y0071500D01*
X0187000Y0069000D01*
X0187000Y0064000D01*
X0184500Y0061500D01*
X0187000Y0059000D01*
X0187000Y0054000D01*
X0184500Y0051500D01*
X0187000Y0049000D01*
X0187000Y0044000D01*
X0184500Y0041500D01*
X0187000Y0039000D01*
X0187000Y0034000D01*
X0184500Y0031500D01*
X0179500Y0031500D01*
X0177000Y0034000D01*
X0177000Y0039000D01*
X0179500Y0041500D01*
X0177000Y0044000D01*
X0177000Y0049000D01*
X0179500Y0051500D01*
X0177000Y0054000D01*
X0177000Y0059000D01*
X0179500Y0061500D01*
X0177000Y0064000D01*
X0177000Y0069000D01*
X0179500Y0071500D01*
X0177000Y0074000D01*
X0177000Y0079000D01*
X0179500Y0081500D01*
X0177000Y0084000D01*
X0177000Y0089000D01*
X0179500Y0091500D01*
X0177000Y0094000D01*
X0177000Y0099000D01*
X0179500Y0101500D01*
X0177000Y0104000D01*
X0149210Y0088380D02*
X0148320Y0088380D01*
X0149210Y0088380D02*
X0149210Y0068820D01*
X0149200Y0068820D01*
X0149200Y0068620D01*
X0148130Y0068620D01*
X0142500Y0068500D02*
X0135800Y0068500D01*
X0129700Y0068700D02*
X0128700Y0068700D01*
X0128700Y0068900D01*
X0128720Y0068900D01*
X0128720Y0088390D01*
X0129630Y0088390D01*
X0135600Y0088500D02*
X0139000Y0088500D01*
X0149000Y0078500D01*
X0142400Y0088500D02*
X0139000Y0088500D01*
X0097000Y0089000D02*
X0097000Y0084000D01*
X0094500Y0081500D01*
X0097000Y0079000D01*
X0097000Y0074000D01*
X0094500Y0071500D01*
X0097000Y0069000D01*
X0097000Y0064000D01*
X0094500Y0061500D01*
X0097000Y0059000D01*
X0097000Y0054000D01*
X0094500Y0051500D01*
X0097000Y0049000D01*
X0097000Y0044000D01*
X0094500Y0041500D01*
X0097000Y0039000D01*
X0097000Y0034000D01*
X0094500Y0031500D01*
X0089500Y0031500D01*
X0087000Y0034000D01*
X0087000Y0039000D01*
X0089500Y0041500D01*
X0087000Y0044000D01*
X0087000Y0049000D01*
X0089500Y0051500D01*
X0087000Y0054000D01*
X0087000Y0059000D01*
X0089500Y0061500D01*
X0087000Y0064000D01*
X0087000Y0069000D01*
X0089500Y0071500D01*
X0087000Y0074000D01*
X0087000Y0079000D01*
X0089500Y0081500D01*
X0087000Y0084000D01*
X0087000Y0089000D01*
X0089500Y0091500D01*
X0087000Y0094000D01*
X0087000Y0099000D01*
X0089500Y0101500D01*
X0087000Y0104000D01*
X0087000Y0109000D01*
X0089500Y0111500D01*
X0094500Y0111500D01*
X0097000Y0109000D01*
X0097000Y0104000D01*
X0094500Y0101500D01*
X0097000Y0099000D01*
X0097000Y0094000D01*
X0094500Y0091500D01*
X0097000Y0089000D01*
X0120315Y0041500D02*
X0120321Y0041983D01*
X0120339Y0042466D01*
X0120368Y0042948D01*
X0120410Y0043429D01*
X0120463Y0043910D01*
X0120528Y0044388D01*
X0120605Y0044865D01*
X0120693Y0045340D01*
X0120793Y0045813D01*
X0120905Y0046283D01*
X0121028Y0046750D01*
X0121163Y0047214D01*
X0121309Y0047675D01*
X0121466Y0048132D01*
X0121634Y0048585D01*
X0121813Y0049033D01*
X0122004Y0049477D01*
X0122205Y0049916D01*
X0122417Y0050351D01*
X0122639Y0050779D01*
X0122872Y0051203D01*
X0123116Y0051620D01*
X0123369Y0052031D01*
X0123633Y0052436D01*
X0123906Y0052835D01*
X0124189Y0053226D01*
X0124481Y0053611D01*
X0124783Y0053988D01*
X0125094Y0054358D01*
X0125414Y0054720D01*
X0125743Y0055074D01*
X0126081Y0055419D01*
X0126426Y0055757D01*
X0126780Y0056086D01*
X0127142Y0056406D01*
X0127512Y0056717D01*
X0127889Y0057019D01*
X0128274Y0057311D01*
X0128665Y0057594D01*
X0129064Y0057867D01*
X0129469Y0058131D01*
X0129880Y0058384D01*
X0130297Y0058628D01*
X0130721Y0058861D01*
X0131149Y0059083D01*
X0131584Y0059295D01*
X0132023Y0059496D01*
X0132467Y0059687D01*
X0132915Y0059866D01*
X0133368Y0060034D01*
X0133825Y0060191D01*
X0134286Y0060337D01*
X0134750Y0060472D01*
X0135217Y0060595D01*
X0135687Y0060707D01*
X0136160Y0060807D01*
X0136635Y0060895D01*
X0137112Y0060972D01*
X0137590Y0061037D01*
X0138071Y0061090D01*
X0138552Y0061132D01*
X0139034Y0061161D01*
X0139517Y0061179D01*
X0140000Y0061185D01*
X0140483Y0061179D01*
X0140966Y0061161D01*
X0141448Y0061132D01*
X0141929Y0061090D01*
X0142410Y0061037D01*
X0142888Y0060972D01*
X0143365Y0060895D01*
X0143840Y0060807D01*
X0144313Y0060707D01*
X0144783Y0060595D01*
X0145250Y0060472D01*
X0145714Y0060337D01*
X0146175Y0060191D01*
X0146632Y0060034D01*
X0147085Y0059866D01*
X0147533Y0059687D01*
X0147977Y0059496D01*
X0148416Y0059295D01*
X0148851Y0059083D01*
X0149279Y0058861D01*
X0149703Y0058628D01*
X0150120Y0058384D01*
X0150531Y0058131D01*
X0150936Y0057867D01*
X0151335Y0057594D01*
X0151726Y0057311D01*
X0152111Y0057019D01*
X0152488Y0056717D01*
X0152858Y0056406D01*
X0153220Y0056086D01*
X0153574Y0055757D01*
X0153919Y0055419D01*
X0154257Y0055074D01*
X0154586Y0054720D01*
X0154906Y0054358D01*
X0155217Y0053988D01*
X0155519Y0053611D01*
X0155811Y0053226D01*
X0156094Y0052835D01*
X0156367Y0052436D01*
X0156631Y0052031D01*
X0156884Y0051620D01*
X0157128Y0051203D01*
X0157361Y0050779D01*
X0157583Y0050351D01*
X0157795Y0049916D01*
X0157996Y0049477D01*
X0158187Y0049033D01*
X0158366Y0048585D01*
X0158534Y0048132D01*
X0158691Y0047675D01*
X0158837Y0047214D01*
X0158972Y0046750D01*
X0159095Y0046283D01*
X0159207Y0045813D01*
X0159307Y0045340D01*
X0159395Y0044865D01*
X0159472Y0044388D01*
X0159537Y0043910D01*
X0159590Y0043429D01*
X0159632Y0042948D01*
X0159661Y0042466D01*
X0159679Y0041983D01*
X0159685Y0041500D01*
X0159679Y0041017D01*
X0159661Y0040534D01*
X0159632Y0040052D01*
X0159590Y0039571D01*
X0159537Y0039090D01*
X0159472Y0038612D01*
X0159395Y0038135D01*
X0159307Y0037660D01*
X0159207Y0037187D01*
X0159095Y0036717D01*
X0158972Y0036250D01*
X0158837Y0035786D01*
X0158691Y0035325D01*
X0158534Y0034868D01*
X0158366Y0034415D01*
X0158187Y0033967D01*
X0157996Y0033523D01*
X0157795Y0033084D01*
X0157583Y0032649D01*
X0157361Y0032221D01*
X0157128Y0031797D01*
X0156884Y0031380D01*
X0156631Y0030969D01*
X0156367Y0030564D01*
X0156094Y0030165D01*
X0155811Y0029774D01*
X0155519Y0029389D01*
X0155217Y0029012D01*
X0154906Y0028642D01*
X0154586Y0028280D01*
X0154257Y0027926D01*
X0153919Y0027581D01*
X0153574Y0027243D01*
X0153220Y0026914D01*
X0152858Y0026594D01*
X0152488Y0026283D01*
X0152111Y0025981D01*
X0151726Y0025689D01*
X0151335Y0025406D01*
X0150936Y0025133D01*
X0150531Y0024869D01*
X0150120Y0024616D01*
X0149703Y0024372D01*
X0149279Y0024139D01*
X0148851Y0023917D01*
X0148416Y0023705D01*
X0147977Y0023504D01*
X0147533Y0023313D01*
X0147085Y0023134D01*
X0146632Y0022966D01*
X0146175Y0022809D01*
X0145714Y0022663D01*
X0145250Y0022528D01*
X0144783Y0022405D01*
X0144313Y0022293D01*
X0143840Y0022193D01*
X0143365Y0022105D01*
X0142888Y0022028D01*
X0142410Y0021963D01*
X0141929Y0021910D01*
X0141448Y0021868D01*
X0140966Y0021839D01*
X0140483Y0021821D01*
X0140000Y0021815D01*
X0139517Y0021821D01*
X0139034Y0021839D01*
X0138552Y0021868D01*
X0138071Y0021910D01*
X0137590Y0021963D01*
X0137112Y0022028D01*
X0136635Y0022105D01*
X0136160Y0022193D01*
X0135687Y0022293D01*
X0135217Y0022405D01*
X0134750Y0022528D01*
X0134286Y0022663D01*
X0133825Y0022809D01*
X0133368Y0022966D01*
X0132915Y0023134D01*
X0132467Y0023313D01*
X0132023Y0023504D01*
X0131584Y0023705D01*
X0131149Y0023917D01*
X0130721Y0024139D01*
X0130297Y0024372D01*
X0129880Y0024616D01*
X0129469Y0024869D01*
X0129064Y0025133D01*
X0128665Y0025406D01*
X0128274Y0025689D01*
X0127889Y0025981D01*
X0127512Y0026283D01*
X0127142Y0026594D01*
X0126780Y0026914D01*
X0126426Y0027243D01*
X0126081Y0027581D01*
X0125743Y0027926D01*
X0125414Y0028280D01*
X0125094Y0028642D01*
X0124783Y0029012D01*
X0124481Y0029389D01*
X0124189Y0029774D01*
X0123906Y0030165D01*
X0123633Y0030564D01*
X0123369Y0030969D01*
X0123116Y0031380D01*
X0122872Y0031797D01*
X0122639Y0032221D01*
X0122417Y0032649D01*
X0122205Y0033084D01*
X0122004Y0033523D01*
X0121813Y0033967D01*
X0121634Y0034415D01*
X0121466Y0034868D01*
X0121309Y0035325D01*
X0121163Y0035786D01*
X0121028Y0036250D01*
X0120905Y0036717D01*
X0120793Y0037187D01*
X0120693Y0037660D01*
X0120605Y0038135D01*
X0120528Y0038612D01*
X0120463Y0039090D01*
X0120410Y0039571D01*
X0120368Y0040052D01*
X0120339Y0040534D01*
X0120321Y0041017D01*
X0120315Y0041500D01*
X0130000Y0034000D02*
X0130000Y0029000D01*
X0127500Y0031500D02*
X0132500Y0031500D01*
X0147500Y0031500D02*
X0152500Y0031500D01*
D15*
X0166000Y0058300D03*
X0166000Y0086700D03*
X0118000Y0086700D03*
X0118000Y0058300D03*
D16*
X0150250Y0089750D03*
M02*
