%
M48
M72
T01C0.03200
T02C0.03543
T03C0.04000
T04C0.05118
%
T01
X118000Y52500
X166000Y52500
X166000Y92500
X118000Y92500
T02
X130157Y41500
X149843Y41500
T03
X92000Y36500
X92000Y46500
X92000Y56500
X92000Y66500
X92000Y76500
X92000Y86500
X92000Y96500
X92000Y106500
X182000Y106500
X182000Y96500
X182000Y86500
X182000Y76500
X182000Y66500
X182000Y56500
X182000Y46500
X182000Y36500
X176000Y13500
X166000Y13500
X156000Y13500
X128000Y13500
X118000Y13500
X108000Y13500
T04
X131000Y114500
X150685Y114500
M30
